<svg width="18" height="20" viewBox="0 0 18 20" fill="none" xmlns="http://www.w3.org/2000/svg">
<path d="M9.85547 1.00417L9.77148 15.1751C10.0497 14.7201 10.3594 14.2699 10.6934 13.8382C11.9898 12.1621 13.7957 10.601 15.8789 10.26L16.1211 11.7405C14.5916 11.9909 13.0861 13.1967 11.8799 14.7561C10.6786 16.3092 9.90428 18.0449 9.74121 19.1135H8.25879C8.09572 18.0449 7.32136 16.3092 6.12012 14.7561C4.91392 13.1967 3.40845 11.9909 1.87891 11.7405L2.12109 10.26C4.20426 10.601 6.01022 12.1621 7.30664 13.8382C7.65853 14.2931 7.98181 14.7694 8.27148 15.2493L8.35449 0.996353L9.85547 1.00417Z" fill="white"/>
</svg>
