<svg xmlns="http://www.w3.org/2000/svg" viewBox="0 0 531.96 572.56"><defs><style>.cls-1{fill:#fff;}.cls-2{fill:#fdf9f4;}.cls-3{fill:none;}</style></defs><g id="Layer_2" data-name="Layer 2"><g id="OBJECTS"><path class="cls-1" d="M85.13,106h0l-3.31-5.73s0,0,0,0l-.07-.12H74.82l-.07.12s0,0,0,0L71.42,106h0l-.07.12.07.12h0L74.74,112s0,0,0,0l.07.12h6.92l.07-.12s0,0,0,0l3.31-5.74h0l.07-.12Zm-4,5.12H75.4l-2.89-5,2.88-5h5.77l2.88,5Z"/><path class="cls-1" d="M0,0V167.12H57.13V106.65A16.45,16.45,0,0,1,72.08,90.32V79.68a1.44,1.44,0,1,1,2.88,0V90.32a16.43,16.43,0,0,1,15,16.33v60.47h15.87V107.06a16.43,16.43,0,0,1,14-16.21V73.74a1.32,1.32,0,0,1,2.64,0V90.68a16.43,16.43,0,0,1,16.13,16.38v60.06H166.7V0ZM19.06,151a5.29,5.29,0,1,1,5.28-5.29A5.29,5.29,0,0,1,19.06,151Zm0-25.91a5.29,5.29,0,1,1,5.28-5.29A5.29,5.29,0,0,1,19.06,125Zm0-25.91a5.29,5.29,0,1,1,5.28-5.29A5.29,5.29,0,0,1,19.06,99.13ZM150.48,75.86a5.29,5.29,0,1,1,5.29-5.29A5.29,5.29,0,0,1,150.48,75.86Zm0-25.91a5.29,5.29,0,1,1,5.29-5.29A5.29,5.29,0,0,1,150.48,50Zm0-25.91a5.29,5.29,0,1,1,5.29-5.29A5.29,5.29,0,0,1,150.48,24Z"/><path class="cls-1" d="M89.91,167.12v38.94a16.45,16.45,0,0,1-15,16.33V167.12Z"/><path class="cls-1" d="M72.08,167.12v55.27a16.45,16.45,0,0,1-14.95-16.33V167.12Z"/><path class="cls-1" d="M138.56,167.12v39.35a16.43,16.43,0,0,1-16.13,16.38V167.12Z"/><path class="cls-1" d="M119.79,167.12v55.56a16.44,16.44,0,0,1-14-16.21V167.12Z"/><path class="cls-1" d="M75,222.39v166.1a1.44,1.44,0,0,1-2.88,0V222.39q.7.06,1.44.06T75,222.39Z"/><path class="cls-1" d="M122.43,222.85v110a1.32,1.32,0,0,1-2.64,0V222.68a15.6,15.6,0,0,0,2.38.18Z"/><path class="cls-1" d="M203.4,161l16,7.18H183.85A37.58,37.58,0,0,1,187,153.6Z"/><path class="cls-1" d="M194.76,142.09l24.72,24.72-15.57-7-16.45-7.37A37.47,37.47,0,0,1,194.76,142.09Z"/><path class="cls-1" d="M220.71,166.28l-25.06-25.07a37.45,37.45,0,0,1,12.51-7.84Z"/><path class="cls-1" d="M221.7,165.37,209.34,133a37.37,37.37,0,0,1,12.16-2h.2Z"/><path class="cls-1" d="M237.09,134.31,223,165.86V131A37.15,37.15,0,0,1,237.09,134.31Z"/><path class="cls-1" d="M256.62,155l-33.11,12.62c6.27-14,12.41-27.68,14.7-32.8A37.6,37.6,0,0,1,256.62,155Z"/><path class="cls-1" d="M218.92,169.4l-32.67,12.45a37.52,37.52,0,0,1-2.39-12.45Z"/><path class="cls-1" d="M219.83,170.39l-24.89,24.88A37.66,37.66,0,0,1,186.72,183Z"/><path class="cls-1" d="M220.37,171.61c-6.14,13.7-12,26.81-14.07,31.42a37.41,37.41,0,0,1-10.45-6.89Z"/><path class="cls-1" d="M207.44,203.52,221.7,171.7v34.53h-.2A37.53,37.53,0,0,1,207.44,203.52Z"/><path class="cls-1" d="M223,172.16l12,31.58a37.32,37.32,0,0,1-12,2.46Z"/><path class="cls-1" d="M255.66,184.39a37.63,37.63,0,0,1-19.52,18.88L223.44,170Z"/><path class="cls-1" d="M489.69,447H532V403.54H425.25a60,60,0,0,0-60,60v107.7H472a59.77,59.77,0,0,0,40.52-15.76h-57.2a7.93,7.93,0,1,1,0-15.86h69.54a58.75,58.75,0,0,0,6.14-17.5H414.27v-.33l-34.15,33.87a1.1,1.1,0,0,1-.75.31,1.06,1.06,0,0,1-.75-.32,1,1,0,0,1,0-1.49l130.08-129a1.06,1.06,0,0,1,1.49,0,1.07,1.07,0,0,1,0,1.5Zm-80.08,34.2a13.33,13.33,0,1,1,3.93-9.45A13.37,13.37,0,0,1,409.61,481.18Zm40.62-23a7.94,7.94,0,0,1-15.87,0v-27.5a7.94,7.94,0,0,1,15.87,0Zm35.18,27.74H532V449.2H487.45L416.06,520H531.32a59.08,59.08,0,0,0,.64-8.77v-9.5H485.41a7.93,7.93,0,0,1,0-15.86Z"/><path class="cls-1" d="M53.54,425a3.62,3.62,0,1,0,3.62,3.62A3.62,3.62,0,0,0,53.54,425Z"/><path class="cls-1" d="M53,467.1a3.62,3.62,0,1,0,3.62,3.62A3.62,3.62,0,0,0,53,467.1Z"/><path class="cls-1" d="M53.28,446.06a3.62,3.62,0,1,0,3.62,3.62A3.62,3.62,0,0,0,53.28,446.06Z"/><path class="cls-1" d="M95.87,446.06a3.62,3.62,0,1,0,3.62,3.62A3.62,3.62,0,0,0,95.87,446.06Z"/><path class="cls-1" d="M117.17,446.06a3.62,3.62,0,1,0,3.61,3.62A3.63,3.63,0,0,0,117.17,446.06Z"/><path class="cls-1" d="M116.91,467.1a3.62,3.62,0,1,0,3.61,3.62A3.62,3.62,0,0,0,116.91,467.1Z"/><path class="cls-1" d="M117.43,425a3.62,3.62,0,1,0,3.61,3.62A3.62,3.62,0,0,0,117.43,425Z"/><path class="cls-1" d="M166.7,425.86a20,20,0,0,0-20-20H20a20,20,0,0,0-20,20v126.7a20,20,0,0,0,20,20H146.7A20,20,0,0,0,164,562.63H56.28a37,37,0,0,0-.48-68.41H166.7Zm-90,102.66a34.68,34.68,0,0,1-28.16,34.11H35.43c-.56-.1-1.12-.23-1.67-.36a34.73,34.73,0,0,1,0-67.49c.92-.22,1.86-.41,2.81-.56H47.35a32,32,0,0,1,4.75,1.08A34.53,34.53,0,0,1,76.69,528.52ZM53,476.45a5.74,5.74,0,1,1,5.74-5.73A5.74,5.74,0,0,1,53,476.45Zm.26-21A5.73,5.73,0,1,1,59,449.68,5.74,5.74,0,0,1,53.28,455.41Zm.26-21a5.74,5.74,0,1,1,5.74-5.73A5.74,5.74,0,0,1,53.54,434.38Zm20.78,42.07a5.74,5.74,0,1,1,5.73-5.73A5.74,5.74,0,0,1,74.32,476.45Zm.26-21a5.73,5.73,0,1,1,5.73-5.73A5.74,5.74,0,0,1,74.58,455.41Zm.26-21a5.74,5.74,0,1,1,5.73-5.73A5.74,5.74,0,0,1,74.84,434.38Zm20.77,42.07a5.74,5.74,0,1,1,5.73-5.73A5.74,5.74,0,0,1,95.61,476.45Zm.26-21a5.73,5.73,0,1,1,5.73-5.73A5.74,5.74,0,0,1,95.87,455.41Zm.26-21a5.74,5.74,0,1,1,5.73-5.73A5.74,5.74,0,0,1,96.13,434.38Zm20.78,42.07a5.74,5.74,0,1,1,5.73-5.73A5.74,5.74,0,0,1,116.91,476.45Zm.26-21a5.73,5.73,0,1,1,5.73-5.73A5.74,5.74,0,0,1,117.17,455.41Zm.26-21a5.74,5.74,0,1,1,5.73-5.73A5.74,5.74,0,0,1,117.43,434.38Z"/><path class="cls-1" d="M74.84,425a3.62,3.62,0,1,0,3.61,3.62A3.62,3.62,0,0,0,74.84,425Z"/><path class="cls-1" d="M74.32,467.1a3.62,3.62,0,1,0,3.62,3.62A3.62,3.62,0,0,0,74.32,467.1Z"/><path class="cls-1" d="M95.61,467.1a3.62,3.62,0,1,0,3.62,3.62A3.62,3.62,0,0,0,95.61,467.1Z"/><circle class="cls-1" cx="74.58" cy="449.68" r="3.62"/><path class="cls-1" d="M96.13,425a3.62,3.62,0,1,0,3.62,3.62A3.62,3.62,0,0,0,96.13,425Z"/><path class="cls-1" d="M42,500.27a28.25,28.25,0,1,0,28.25,28.25A28.17,28.17,0,0,0,42,500.27Zm0,54.39a25.64,25.64,0,0,1-8.21-1.33,26.13,26.13,0,0,1,0-49.62A25.64,25.64,0,0,1,42,502.38a26.14,26.14,0,0,1,0,52.28Z"/><path class="cls-1" d="M42,509.81a18.56,18.56,0,0,0-8.21,1.9,18.71,18.71,0,0,0,0,33.62A18.71,18.71,0,1,0,42,509.81Zm0,35.3a16.59,16.59,0,1,1,16.59-16.59A16.54,16.54,0,0,1,42,545.11Z"/><path class="cls-1" d="M42,519.43a9.1,9.1,0,1,0,9.09,9.09A9.12,9.12,0,0,0,42,519.43Zm0,16.07a7,7,0,1,1,7-7A7,7,0,0,1,42,535.5Z"/><rect class="cls-1" x="157.03" y="510.8" width="8.61" height="2.12"/><rect class="cls-1" x="109.24" y="510.8" width="34.34" height="2.12"/><rect class="cls-1" x="85.27" y="510.8" width="4.71" height="2.12"/><rect class="cls-1" x="136.77" y="526.66" width="29.93" height="2.12"/><rect class="cls-1" x="86.32" y="526.66" width="31.01" height="2.12"/><rect class="cls-1" x="150.73" y="545.7" width="14.91" height="2.12"/><rect class="cls-1" x="112.36" y="545.7" width="25.04" height="2.12"/><rect class="cls-1" x="85.27" y="545.7" width="10.03" height="2.12"/><path class="cls-1" d="M532,80.13v3.28c-3.35-.58-5.26-2.72-7-4.65-1.86-2.09-3.33-3.74-6.43-3.74s-4.57,1.65-6.44,3.74c-2,2.26-4.29,4.81-8.83,4.81s-6.81-2.55-8.82-4.81C492.59,76.67,491.12,75,488,75s-4.57,1.65-6.43,3.74c-2,2.26-4.29,4.81-8.83,4.81S466,81,463.94,78.76c-1.86-2.09-3.33-3.74-6.43-3.74s-4.57,1.65-6.43,3.74A14,14,0,0,1,446,82.89c.06-1.23.1-2.46.11-3.71a16,16,0,0,0,2.62-2.55c2-2.26,4.29-4.81,8.82-4.81s6.81,2.55,8.82,4.81c1.87,2.09,3.34,3.74,6.43,3.74s4.57-1.65,6.44-3.74c2-2.26,4.29-4.81,8.82-4.81s6.81,2.55,8.82,4.81c1.87,2.09,3.34,3.74,6.43,3.74s4.57-1.65,6.44-3.74c2-2.26,4.29-4.81,8.83-4.81s6.81,2.55,8.83,4.81C528.82,78.26,530,79.62,532,80.13Z"/><path class="cls-1" d="M532,104.7V108c-3.35-.58-5.26-2.73-7-4.65-1.86-2.09-3.33-3.74-6.43-3.74s-4.57,1.65-6.44,3.74c-2,2.25-4.29,4.81-8.83,4.81s-6.81-2.56-8.82-4.81c-1.86-2.09-3.33-3.74-6.43-3.74s-4.57,1.65-6.43,3.74c-2,2.25-4.29,4.81-8.83,4.81s-6.81-2.56-8.82-4.81c-1.86-2.09-3.33-3.74-6.43-3.74s-4.57,1.65-6.43,3.74c-2,2.25-4.29,4.81-8.82,4.81a10.13,10.13,0,0,1-1.79-.15q.6-1.53,1.14-3.09c.21,0,.42,0,.65,0,3.09,0,4.56-1.65,6.43-3.74,2-2.25,4.29-4.81,8.82-4.81s6.81,2.56,8.82,4.81c1.87,2.09,3.34,3.74,6.43,3.74s4.57-1.65,6.44-3.74c2-2.25,4.29-4.81,8.82-4.81s6.81,2.56,8.82,4.81c1.87,2.09,3.34,3.74,6.43,3.74s4.57-1.65,6.44-3.74c2-2.25,4.29-4.81,8.83-4.81s6.81,2.56,8.83,4.81C528.82,102.83,530,104.19,532,104.7Z"/><path class="cls-1" d="M532,129.28v3.29c-3.35-.58-5.26-2.73-7-4.66-1.86-2.09-3.33-3.74-6.43-3.74s-4.57,1.65-6.44,3.74c-2,2.26-4.29,4.82-8.83,4.82s-6.81-2.56-8.82-4.82c-1.86-2.09-3.33-3.74-6.43-3.74s-4.57,1.65-6.43,3.74c-2,2.26-4.29,4.82-8.83,4.82s-6.81-2.56-8.82-4.82c-1.86-2.09-3.33-3.74-6.43-3.74s-4.57,1.65-6.43,3.74c-2,2.26-4.29,4.82-8.82,4.82s-6.82-2.56-8.83-4.82a17.2,17.2,0,0,0-2.51-2.48c.63-.86,1.23-1.74,1.82-2.63a19.84,19.84,0,0,1,3.08,3c1.87,2.09,3.34,3.74,6.44,3.74s4.56-1.65,6.43-3.74c2-2.26,4.29-4.81,8.82-4.81s6.81,2.55,8.82,4.81c1.87,2.09,3.34,3.74,6.43,3.74s4.57-1.65,6.44-3.74c2-2.26,4.29-4.81,8.82-4.81s6.81,2.55,8.82,4.81c1.87,2.09,3.34,3.74,6.43,3.74s4.57-1.65,6.44-3.74c2-2.26,4.29-4.81,8.83-4.81s6.81,2.55,8.83,4.81C528.82,127.41,530,128.77,532,129.28Z"/><path class="cls-2" d="M387.62,155a10.87,10.87,0,0,1-1.88,1.27.84.84,0,0,1-.05-.17l-.66-3.15a12.11,12.11,0,0,0,1.82-1.66Z"/><path class="cls-1" d="M532,153.85v3.29c-3.35-.58-5.26-2.72-7-4.65-1.86-2.09-3.33-3.74-6.43-3.74s-4.57,1.65-6.44,3.74c-2,2.25-4.29,4.81-8.83,4.81s-6.81-2.56-8.82-4.81c-1.86-2.09-3.33-3.74-6.43-3.74s-4.57,1.65-6.43,3.74c-2,2.25-4.29,4.81-8.83,4.81s-6.81-2.56-8.82-4.81c-1.86-2.09-3.33-3.74-6.43-3.74s-4.57,1.65-6.43,3.74c-2,2.25-4.29,4.81-8.82,4.81s-6.82-2.56-8.83-4.81c-1.86-2.09-3.33-3.74-6.43-3.74s-4.57,1.65-6.43,3.74c-2,2.25-4.29,4.81-8.82,4.81s-6.82-2.56-8.83-4.81a22.84,22.84,0,0,0-1.77-1.86c1-.49,2-1,3-1.55.41.42.79.85,1.17,1.27,1.86,2.09,3.33,3.74,6.43,3.74s4.56-1.65,6.43-3.74c2-2.25,4.29-4.81,8.82-4.81s6.81,2.56,8.82,4.81c1.87,2.09,3.34,3.74,6.44,3.74s4.56-1.65,6.43-3.74c2-2.25,4.29-4.81,8.82-4.81s6.81,2.56,8.82,4.81c1.87,2.09,3.34,3.74,6.43,3.74s4.57-1.65,6.44-3.74c2-2.25,4.29-4.81,8.82-4.81s6.81,2.56,8.82,4.81c1.87,2.09,3.34,3.74,6.43,3.74s4.57-1.65,6.44-3.74c2-2.25,4.29-4.81,8.83-4.81s6.81,2.56,8.83,4.81C528.82,152,530,153.34,532,153.85Z"/><path class="cls-1" d="M532,178.43v3.29c-3.35-.58-5.26-2.73-7-4.65-1.86-2.09-3.33-3.74-6.43-3.74S514,175,512.1,177.07c-2,2.25-4.29,4.81-8.83,4.81s-6.81-2.56-8.82-4.82c-1.86-2.08-3.33-3.73-6.43-3.73s-4.57,1.65-6.43,3.73c-2,2.26-4.29,4.82-8.83,4.82s-6.81-2.56-8.82-4.82c-1.86-2.08-3.33-3.73-6.43-3.73s-4.57,1.65-6.43,3.73c-2,2.26-4.29,4.82-8.82,4.82s-6.82-2.56-8.83-4.82c-1.86-2.08-3.33-3.73-6.43-3.73s-4.57,1.65-6.43,3.73c-2,2.26-4.29,4.82-8.82,4.82s-6.82-2.56-8.83-4.82c-1.86-2.08-3.33-3.73-6.43-3.73s-4.56,1.65-6.43,3.73c-2,2.26-4.29,4.82-8.82,4.82s-6.81-2.56-8.82-4.82c-1.87-2.08-3.34-3.73-6.43-3.73a1.52,1.52,0,0,1-.73-.18V170.3a1.52,1.52,0,0,1,.73-.18c4.53,0,6.81,2.55,8.82,4.81,1.86,2.09,3.33,3.74,6.43,3.74s4.57-1.65,6.43-3.74c2-2.26,4.29-4.81,8.82-4.81s6.81,2.55,8.83,4.81c1.86,2.09,3.33,3.74,6.43,3.74s4.56-1.65,6.43-3.74c2-2.26,4.29-4.81,8.82-4.81s6.81,2.55,8.82,4.81c1.87,2.09,3.34,3.74,6.44,3.74s4.56-1.65,6.43-3.74c2-2.26,4.29-4.81,8.82-4.81s6.81,2.55,8.82,4.81c1.87,2.09,3.34,3.74,6.43,3.74s4.57-1.65,6.44-3.74c2-2.26,4.29-4.81,8.82-4.81s6.81,2.55,8.82,4.81c1.87,2.09,3.34,3.74,6.43,3.74s4.57-1.65,6.44-3.74c2-2.26,4.29-4.81,8.83-4.81s6.81,2.55,8.83,4.81C528.82,176.56,530,177.92,532,178.43Z"/><path class="cls-1" d="M532,203v3.28c-3.35-.58-5.26-2.72-7-4.65-1.86-2.09-3.33-3.74-6.43-3.74s-4.57,1.65-6.44,3.74c-2,2.26-4.29,4.81-8.83,4.81s-6.81-2.55-8.82-4.81c-1.86-2.09-3.33-3.74-6.43-3.74s-4.57,1.65-6.43,3.74c-2,2.26-4.29,4.81-8.83,4.81s-6.81-2.55-8.82-4.81c-1.86-2.09-3.33-3.74-6.43-3.74s-4.57,1.65-6.43,3.74c-2,2.26-4.29,4.81-8.82,4.81s-6.82-2.55-8.83-4.81c-1.86-2.09-3.33-3.74-6.43-3.74s-4.57,1.65-6.43,3.74c-2,2.26-4.29,4.81-8.82,4.81s-6.82-2.55-8.83-4.81c-1.86-2.09-3.33-3.74-6.43-3.74s-4.56,1.65-6.43,3.74c-2,2.26-4.29,4.81-8.82,4.81s-6.81-2.55-8.82-4.81c-1.87-2.09-3.34-3.74-6.43-3.74a1.52,1.52,0,0,1-.73-.18v-2.85a1.52,1.52,0,0,1,.73-.18c4.53,0,6.81,2.56,8.82,4.82,1.86,2.08,3.33,3.74,6.43,3.74s4.57-1.66,6.43-3.74c2-2.26,4.29-4.82,8.82-4.82s6.81,2.56,8.83,4.82c1.86,2.08,3.33,3.74,6.43,3.74s4.56-1.66,6.43-3.74c2-2.26,4.29-4.82,8.82-4.82s6.81,2.56,8.82,4.82c1.87,2.08,3.34,3.74,6.44,3.74s4.56-1.66,6.43-3.75c2-2.25,4.29-4.81,8.82-4.81s6.81,2.56,8.82,4.82c1.87,2.08,3.34,3.74,6.43,3.74s4.57-1.66,6.44-3.74c2-2.26,4.29-4.82,8.82-4.82s6.81,2.56,8.82,4.82c1.87,2.08,3.34,3.74,6.43,3.74s4.57-1.66,6.44-3.75c2-2.25,4.29-4.81,8.83-4.81s6.81,2.56,8.83,4.81C528.82,201.13,530,202.49,532,203Z"/><path class="cls-1" d="M532,80.13v3.28c-3.35-.58-5.26-2.72-7-4.65-1.86-2.09-3.33-3.74-6.43-3.74s-4.57,1.65-6.44,3.74c-2,2.26-4.29,4.81-8.83,4.81s-6.81-2.55-8.82-4.81C492.59,76.67,491.12,75,488,75s-4.57,1.65-6.43,3.74c-2,2.26-4.29,4.81-8.83,4.81S466,81,463.94,78.76c-1.86-2.09-3.33-3.74-6.43-3.74s-4.57,1.65-6.43,3.74A14,14,0,0,1,446,82.89c.06-1.23.1-2.46.11-3.71a16,16,0,0,0,2.62-2.55c2-2.26,4.29-4.81,8.82-4.81s6.81,2.55,8.82,4.81c1.87,2.09,3.34,3.74,6.43,3.74s4.57-1.65,6.44-3.74c2-2.26,4.29-4.81,8.82-4.81s6.81,2.55,8.82,4.81c1.87,2.09,3.34,3.74,6.43,3.74s4.57-1.65,6.44-3.74c2-2.26,4.29-4.81,8.83-4.81s6.81,2.55,8.83,4.81C528.82,78.26,530,79.62,532,80.13Z"/><path class="cls-1" d="M532,104.7V108c-3.35-.58-5.26-2.73-7-4.65-1.86-2.09-3.33-3.74-6.43-3.74s-4.57,1.65-6.44,3.74c-2,2.25-4.29,4.81-8.83,4.81s-6.81-2.56-8.82-4.81c-1.86-2.09-3.33-3.74-6.43-3.74s-4.57,1.65-6.43,3.74c-2,2.25-4.29,4.81-8.83,4.81s-6.81-2.56-8.82-4.81c-1.86-2.09-3.33-3.74-6.43-3.74s-4.57,1.65-6.43,3.74c-2,2.25-4.29,4.81-8.82,4.81a10.13,10.13,0,0,1-1.79-.15q.6-1.53,1.14-3.09c.21,0,.42,0,.65,0,3.09,0,4.56-1.65,6.43-3.74,2-2.25,4.29-4.81,8.82-4.81s6.81,2.56,8.82,4.81c1.87,2.09,3.34,3.74,6.43,3.74s4.57-1.65,6.44-3.74c2-2.25,4.29-4.81,8.82-4.81s6.81,2.56,8.82,4.81c1.87,2.09,3.34,3.74,6.43,3.74s4.57-1.65,6.44-3.74c2-2.25,4.29-4.81,8.83-4.81s6.81,2.56,8.83,4.81C528.82,102.83,530,104.19,532,104.7Z"/><path class="cls-1" d="M532,129.28v3.29c-3.35-.58-5.26-2.73-7-4.66-1.86-2.09-3.33-3.74-6.43-3.74s-4.57,1.65-6.44,3.74c-2,2.26-4.29,4.82-8.83,4.82s-6.81-2.56-8.82-4.82c-1.86-2.09-3.33-3.74-6.43-3.74s-4.57,1.65-6.43,3.74c-2,2.26-4.29,4.82-8.83,4.82s-6.81-2.56-8.82-4.82c-1.86-2.09-3.33-3.74-6.43-3.74s-4.57,1.65-6.43,3.74c-2,2.26-4.29,4.82-8.82,4.82s-6.82-2.56-8.83-4.82a17.2,17.2,0,0,0-2.51-2.48c.63-.86,1.23-1.74,1.82-2.63a19.84,19.84,0,0,1,3.08,3c1.87,2.09,3.34,3.74,6.44,3.74s4.56-1.65,6.43-3.74c2-2.26,4.29-4.81,8.82-4.81s6.81,2.55,8.82,4.81c1.87,2.09,3.34,3.74,6.43,3.74s4.57-1.65,6.44-3.74c2-2.26,4.29-4.81,8.82-4.81s6.81,2.55,8.82,4.81c1.87,2.09,3.34,3.74,6.43,3.74s4.57-1.65,6.44-3.74c2-2.26,4.29-4.81,8.83-4.81s6.81,2.55,8.83,4.81C528.82,127.41,530,128.77,532,129.28Z"/><path class="cls-1" d="M532,153.85v3.29c-3.35-.58-5.26-2.72-7-4.65-1.86-2.09-3.33-3.74-6.43-3.74s-4.57,1.65-6.44,3.74c-2,2.25-4.29,4.81-8.83,4.81s-6.81-2.56-8.82-4.81c-1.86-2.09-3.33-3.74-6.43-3.74s-4.57,1.65-6.43,3.74c-2,2.25-4.29,4.81-8.83,4.81s-6.81-2.56-8.82-4.81c-1.86-2.09-3.33-3.74-6.43-3.74s-4.57,1.65-6.43,3.74c-2,2.25-4.29,4.81-8.82,4.81s-6.82-2.56-8.83-4.81c-1.86-2.09-3.33-3.74-6.43-3.74s-4.57,1.65-6.43,3.74c-2,2.25-4.29,4.81-8.82,4.81s-6.82-2.56-8.83-4.81a22.84,22.84,0,0,0-1.77-1.86c1-.49,2-1,3-1.55.41.42.79.85,1.17,1.27,1.86,2.09,3.33,3.74,6.43,3.74s4.56-1.65,6.43-3.74c2-2.25,4.29-4.81,8.82-4.81s6.81,2.56,8.82,4.81c1.87,2.09,3.34,3.74,6.44,3.74s4.56-1.65,6.43-3.74c2-2.25,4.29-4.81,8.82-4.81s6.81,2.56,8.82,4.81c1.87,2.09,3.34,3.74,6.43,3.74s4.57-1.65,6.44-3.74c2-2.25,4.29-4.81,8.82-4.81s6.81,2.56,8.82,4.81c1.87,2.09,3.34,3.74,6.43,3.74s4.57-1.65,6.44-3.74c2-2.25,4.29-4.81,8.83-4.81s6.81,2.56,8.83,4.81C528.82,152,530,153.34,532,153.85Z"/><path class="cls-1" d="M532,178.43v3.29c-3.35-.58-5.26-2.73-7-4.65-1.86-2.09-3.33-3.74-6.43-3.74S514,175,512.1,177.07c-2,2.25-4.29,4.81-8.83,4.81s-6.81-2.56-8.82-4.82c-1.86-2.08-3.33-3.73-6.43-3.73s-4.57,1.65-6.43,3.73c-2,2.26-4.29,4.82-8.83,4.82s-6.81-2.56-8.82-4.82c-1.86-2.08-3.33-3.73-6.43-3.73s-4.57,1.65-6.43,3.73c-2,2.26-4.29,4.82-8.82,4.82s-6.82-2.56-8.83-4.82c-1.86-2.08-3.33-3.73-6.43-3.73s-4.57,1.65-6.43,3.73c-2,2.26-4.29,4.82-8.82,4.82s-6.82-2.56-8.83-4.82c-1.86-2.08-3.33-3.73-6.43-3.73s-4.56,1.65-6.43,3.73c-2,2.26-4.29,4.82-8.82,4.82s-6.81-2.56-8.82-4.82c-1.87-2.08-3.34-3.73-6.43-3.73a1.52,1.52,0,0,1-.73-.18V170.3a1.52,1.52,0,0,1,.73-.18c4.53,0,6.81,2.55,8.82,4.81,1.86,2.09,3.33,3.74,6.43,3.74s4.57-1.65,6.43-3.74c2-2.26,4.29-4.81,8.82-4.81s6.81,2.55,8.83,4.81c1.86,2.09,3.33,3.74,6.43,3.74s4.56-1.65,6.43-3.74c2-2.26,4.29-4.81,8.82-4.81s6.81,2.55,8.82,4.81c1.87,2.09,3.34,3.74,6.44,3.74s4.56-1.65,6.43-3.74c2-2.26,4.29-4.81,8.82-4.81s6.81,2.55,8.82,4.81c1.87,2.09,3.34,3.74,6.43,3.74s4.57-1.65,6.44-3.74c2-2.26,4.29-4.81,8.82-4.81s6.81,2.55,8.82,4.81c1.87,2.09,3.34,3.74,6.43,3.74s4.57-1.65,6.44-3.74c2-2.26,4.29-4.81,8.83-4.81s6.81,2.55,8.83,4.81C528.82,176.56,530,177.92,532,178.43Z"/><path class="cls-1" d="M532,203v3.28c-3.35-.58-5.26-2.72-7-4.65-1.86-2.09-3.33-3.74-6.43-3.74s-4.57,1.65-6.44,3.74c-2,2.26-4.29,4.81-8.83,4.81s-6.81-2.55-8.82-4.81c-1.86-2.09-3.33-3.74-6.43-3.74s-4.57,1.65-6.43,3.74c-2,2.26-4.29,4.81-8.83,4.81s-6.81-2.55-8.82-4.81c-1.86-2.09-3.33-3.74-6.43-3.74s-4.57,1.65-6.43,3.74c-2,2.26-4.29,4.81-8.82,4.81s-6.82-2.55-8.83-4.81c-1.86-2.09-3.33-3.74-6.43-3.74s-4.57,1.65-6.43,3.74c-2,2.26-4.29,4.81-8.82,4.81s-6.82-2.55-8.83-4.81c-1.86-2.09-3.33-3.74-6.43-3.74s-4.56,1.65-6.43,3.74c-2,2.26-4.29,4.81-8.82,4.81s-6.81-2.55-8.82-4.81c-1.87-2.09-3.34-3.74-6.43-3.74a1.52,1.52,0,0,1-.73-.18v-2.85a1.52,1.52,0,0,1,.73-.18c4.53,0,6.81,2.56,8.82,4.82,1.86,2.08,3.33,3.74,6.43,3.74s4.57-1.66,6.43-3.74c2-2.26,4.29-4.82,8.82-4.82s6.81,2.56,8.83,4.82c1.86,2.08,3.33,3.74,6.43,3.74s4.56-1.66,6.43-3.74c2-2.26,4.29-4.82,8.82-4.82s6.81,2.56,8.82,4.82c1.87,2.08,3.34,3.74,6.44,3.74s4.56-1.66,6.43-3.75c2-2.25,4.29-4.81,8.82-4.81s6.81,2.56,8.82,4.82c1.87,2.08,3.34,3.74,6.43,3.74s4.57-1.66,6.44-3.74c2-2.26,4.29-4.82,8.82-4.82s6.81,2.56,8.82,4.82c1.87,2.08,3.34,3.74,6.43,3.74s4.57-1.66,6.44-3.75c2-2.25,4.29-4.81,8.83-4.81s6.81,2.56,8.83,4.81C528.82,201.13,530,202.49,532,203Z"/><path class="cls-1" d="M468.63,309.39a19.84,19.84,0,1,1-19.84-19.84A19.86,19.86,0,0,1,468.63,309.39Z"/><path class="cls-1" d="M448.79,274.3a35.09,35.09,0,1,0,35.09,35.09A35.13,35.13,0,0,0,448.79,274.3Zm0,58.09a23,23,0,1,1,23-23A23,23,0,0,1,448.79,332.39Z"/><path class="cls-1" d="M448.79,259.16A50.23,50.23,0,1,0,499,309.39,50.28,50.28,0,0,0,448.79,259.16Zm0,88.48a38.26,38.26,0,1,1,38.26-38.25A38.29,38.29,0,0,1,448.79,347.64Z"/><path class="cls-1" d="M448.79,243.56a65.83,65.83,0,1,0,65.83,65.83A65.91,65.91,0,0,0,448.79,243.56Zm0,119.23a53.4,53.4,0,1,1,53.4-53.4A53.47,53.47,0,0,1,448.79,362.79Z"/><path class="cls-1" d="M516.61,223.57A19.8,19.8,0,0,0,512,223H385.26a20,20,0,0,0-20,20V370.3a20,20,0,0,0,20,20H512a20,20,0,0,0,20-20V243A20,20,0,0,0,516.61,223.57ZM448.79,378.39a69,69,0,1,1,69-69A69.08,69.08,0,0,1,448.79,378.39Z"/><path class="cls-1" d="M319.12,294.84l-30.37,4.08,30.17-23.46A14,14,0,1,0,298.78,256L276,287.57l3.91-32.13a13.32,13.32,0,0,0-26.63.55l5.09,31-20.41-24.56a13.32,13.32,0,0,0-17.87,19.76l26.86,18.12-32.42-3A13.32,13.32,0,1,0,215.83,324l28.85-5.61L218.51,338a14,14,0,0,0,19.79,19.79l19.9-26.54-3.91,32.14a13.32,13.32,0,1,0,26.63-.55l-5-30.69,16.6,22.53a13.32,13.32,0,0,0,19-18.68l-25.56-19.51,33,5a13.32,13.32,0,0,0,.22-26.64ZM300.58,310a4.34,4.34,0,0,1-8.12-.52H282.1a14.48,14.48,0,0,1-.64,3.64,13.73,13.73,0,0,1-1.08,2.57h0a14.41,14.41,0,0,1-1.85,2.68c3.18,3.2,5.89,5.91,7.64,7.65a4.34,4.34,0,1,1-1.23,1.62l-7.83-7.84a14.68,14.68,0,0,1-2.92,2,14.37,14.37,0,0,1-4.88,1.48c-.37,0-.73.07-1.1.09v10.43a4.31,4.31,0,0,1,1,.29,4.43,4.43,0,1,1-3-.19V323.25a15.32,15.32,0,0,1-1.78-.28,14.35,14.35,0,0,1-4.94-2.11,13.86,13.86,0,0,1-1.83-1.45l-6.93,6.92a4.32,4.32,0,1,1-1.69-1.39l.15.09,7.1-7.09a13.79,13.79,0,0,1-1.14-1.61,14.33,14.33,0,0,1-1.78-4.47,14.19,14.19,0,0,1-.32-2.43H242.18a4.12,4.12,0,0,1-.33,1.26,4.37,4.37,0,1,1,.12-3.27h11.1a14.34,14.34,0,0,1,.48-2.6,14.59,14.59,0,0,1,1.64-3.71,15.44,15.44,0,0,1,1.39-1.88l-8.5-8.51a4.34,4.34,0,1,1-.89-7.38,4.36,4.36,0,0,1,2.19,5.76l0,0L258,297.8a14.37,14.37,0,0,1,6.59-3.27,12.68,12.68,0,0,1,1.62-.25V281.57a5.08,5.08,0,0,1-.51-.17,4.36,4.36,0,1,1,2.52.32v12.51a14.44,14.44,0,0,1,8.54,3.25l8.71-8.71a4.35,4.35,0,1,1,1.89,1.65,3.18,3.18,0,0,1-.44-.26l-8.7,8.7a15.08,15.08,0,0,1,1.09,1.33,13.91,13.91,0,0,1,2.19,4.37,14.11,14.11,0,0,1,.56,2.88h10.29a4.29,4.29,0,0,1,6.06-3.22A4.34,4.34,0,0,1,300.58,310Z"/><path class="cls-1" d="M269.85,509.62V480.4a6.51,6.51,0,0,0,0-.77c-9.64-77.66-87.23-66.26-87.23-66.26,5.57,73.12,59,75.83,79.71,74.09v85.1h7.56V539.94c19,2,75.95,1.71,81.71-73.9C351.56,466,290.24,457,269.85,509.62Z"/><path class="cls-1" d="M359.06,60.44,306.42,133a80.08,80.08,0,0,1-17.27-29.22Z"/><path class="cls-1" d="M361.49,56.45l-73,45.22a80.7,80.7,0,0,1-.37-45.22Z"/><path class="cls-1" d="M307.89,134.54l53.95-74.33-20.51,95A80.46,80.46,0,0,1,307.89,134.54Z"/><path class="cls-1" d="M364.53,57.71V158.88a80.4,80.4,0,0,1-21.17-3.1Z"/><path class="cls-1" d="M441.23,103.15,411,83.54h0l-9.19-6h0l-3.6-2.34-4.63-3L370,56.87l-.64-.42h-4.37l.32,1.54L368.19,72h0l.76,3.63,5.15,24.73h0l1.19,5.74,4.86,23.29.68,3.26h0l4.2,20.2.66,3.15a.84.84,0,0,0,.05.17,10.87,10.87,0,0,0,1.88-1.27l-.77-3.71L383,132.6l-.65-3.15-4.57-21.91-.88-4.22-5.31-25.51-1-4.91-2.85-13.67,14.77,21.05,2,2.8L394,96.69l2,2.93L416,128l1.84,2.63,3.86,5.49c.52-.49,1-1,1.52-1.52l-3.81-5.42-1.87-2.68L398.89,100l-2.54-3.62-10-14.24-1.84-2.63L370.74,59.9l20.58,13.37,3.14,2h0l32.46,21.09,13.15,8.54a1.05,1.05,0,0,0,1.2-.05.87.87,0,0,0,.27-.27A1.06,1.06,0,0,0,441.23,103.15Z"/><path class="cls-3" d="M306.42,133a80.08,80.08,0,0,1-17.27-29.22l69.91-43.32Z"/><path class="cls-3" d="M288.12,56.45h73.37l-73,45.22a80.7,80.7,0,0,1-.37-45.22Z"/><path class="cls-3" d="M307.89,134.54l53.95-74.33-20.51,95A80.46,80.46,0,0,1,307.89,134.54Z"/><path class="cls-3" d="M343.36,155.78l21.17-98.07V158.88A80.4,80.4,0,0,1,343.36,155.78Z"/><circle class="cls-1" cx="26.23" cy="512.71" r="1.06"/><circle class="cls-1" cx="41.96" cy="528.52" r="1.06"/><path class="cls-1" d="M85.13,139.64h0l-3.31-5.74h0l-.07-.12H74.82l-.07.12h0l-3.32,5.74h0l-.07.12.07.12h0l3.32,5.73h0l.07.12h6.92l.07-.12h0l3.31-5.73h0l.07-.12Zm-4,5.11H75.4l-2.89-5h0l2.88-5h5.77l2.88,5Z"/><path class="cls-1" d="M134.84,115.4h0l-3.31-5.74s0,0,0,0l-.07-.12h-6.93l-.07.12s0,0,0,0l-1.51,2.63-1.8,3.11h0l-.07.12.07.12h0l1.8,3.11,1.51,2.62s0,0,0,0l.07.12h6.93l.07-.12s0,0,0,0l3.31-5.73h0l.07-.12Zm-4,5.11H125.1l-2.17-3.76-.5-.87-.21-.36.21-.36.5-.87,2.17-3.77h5.77l2.88,5Z"/><path class="cls-1" d="M134.84,132.11h0l-3.31-5.73s0,0,0,0l-.07-.12h-6.93l-.07.12s0,0,0,0L122.93,129l-1.8,3.11h0l-.07.12.07.12h0l1.8,3.11,1.51,2.63s0,0,0,0l.07.12h6.93l.07-.12s0,0,0,0l3.31-5.74h0l.07-.12Zm-4,5.12H125.1l-2.17-3.77-.5-.87-.21-.36.21-.36.5-.87,2.17-3.76h5.77l2.88,5Z"/><path class="cls-1" d="M134.84,148h0l-3.31-5.74h0l-.07-.12h-6.93l-.07.12h0l-1.51,2.63-1.8,3.11h0l-.07.12.07.12h0l1.8,3.11,1.51,2.62h0l.07.12h6.93l.07-.12h0l3.31-5.73h0l.07-.12Zm-4,5.11H125.1l-2.17-3.76-.5-.87-.21-.36.21-.36.5-.87,2.17-3.77h5.77l2.88,5Z"/><path class="cls-1" d="M85.13,122.71h0L81.82,117s0,0,0,0l-.07-.12H74.82l-.07.12s0,0,0,0l-3.32,5.73h0l-.07.12.07.12h0l3.32,5.74s0,0,0,0l.07.12h6.92l.07-.12s0,0,0,0L85.13,123h0l.07-.12Zm-4,5.12H75.4l-2.89-5,2.88-5h5.77l2.88,5Z"/><circle class="cls-1" cx="333.99" cy="240.56" r="7.14"/><path class="cls-1" d="M206.05,374.63a7.14,7.14,0,1,1-7.14-7.14A7.14,7.14,0,0,1,206.05,374.63Z"/></g></g></svg>