<svg width="70" height="70" viewBox="0 0 70 70" fill="none" xmlns="http://www.w3.org/2000/svg">
<path d="M67.2586 21.4213C63.8911 13.4212 57.671 6.95776 49.8059 3.2859C41.9408 -0.385963 32.9919 -1.00428 24.6966 1.55098C16.4012 4.10624 9.35131 9.65272 4.91552 17.1137C0.479727 24.5747 -1.02544 33.4177 0.692233 41.9261C2.40991 50.4344 7.22787 58.0009 14.2107 63.1567C21.1936 68.3124 29.8432 70.6895 38.4801 69.8265C47.1171 68.9634 55.1252 64.9218 60.9498 58.4862C66.7744 52.0507 69.9999 43.6804 70 35.0004C70.0059 30.336 69.0737 25.7181 67.2586 21.4213ZM35.1167 66.6267C24.9416 66.6267 15.8748 61.7946 10.087 54.3066H60.1465C54.3587 61.7909 45.2919 66.6267 35.1167 66.6267ZM25.4103 46.5926C23.0665 44.2492 21.6496 41.137 21.4213 37.8305C21.1929 34.5241 22.1685 31.2466 24.1678 28.6032L39.9681 44.4044L42.6332 41.7394L37.7818 36.8871L46.0638 28.6051C47.5303 30.5444 48.4555 32.8385 48.7448 35.2526C49.0341 37.6668 48.6772 40.1145 47.7104 42.3454C46.7436 44.5764 45.2017 46.5106 43.2424 47.9503C41.2831 49.39 38.9765 50.2836 36.5586 50.5397H33.6712C30.5438 50.2148 27.6251 48.818 25.4103 46.5862V46.5926ZM62.6544 50.5378H46.0647C46.5625 50.1377 47.0383 49.7109 47.4901 49.2595C50.7718 45.9777 52.6154 41.5267 52.6154 36.8857C52.6154 32.2446 50.7718 27.7937 47.4901 24.5119L46.1566 25.8454L44.8232 24.5119L40.1078 29.2236L35.0708 24.1875L30.0797 29.1785L25.4076 24.5055L24.0741 25.8389L22.7406 24.5055C19.459 27.7872 17.6154 32.2382 17.6154 36.8793C17.6154 41.5203 19.459 45.9713 22.7406 49.2531C23.1924 49.7045 23.6682 50.1312 24.166 50.5314H7.57904C4.89544 45.7955 3.48785 40.4438 3.49411 35.0004C3.49411 17.5633 17.6797 3.37681 35.1167 3.37681C52.5538 3.37681 66.7394 17.5633 66.7394 35.0004C66.7456 40.4438 65.338 45.7955 62.6544 50.5314V50.5378Z" fill="#F6F6F6"/>
</svg>
