<svg width="300" height="259" viewBox="0 0 300 259" fill="none" xmlns="http://www.w3.org/2000/svg">
<g clip-path="url(#clip0_2110_14)">
<path d="M256.067 3.05881L244.636 14.5127L233.175 3.05881L192.779 43.4862L149.626 0.333191L106.843 43.1159L66.7937 3.05881L55.3635 14.5127L43.9332 3.05881C15.8032 31.1898 0 69.343 0 109.126C0 148.908 15.8032 187.061 43.9332 215.192C64.912 236.169 91.6398 250.454 120.737 256.24C149.834 262.027 179.993 259.056 207.402 247.702C234.81 236.349 258.237 217.123 274.719 192.456C291.201 167.789 299.999 138.788 300 109.122C300.051 89.4162 296.195 69.8962 288.654 51.6908C281.113 33.4854 270.037 16.956 256.067 3.05881ZM233.175 192.332C212.079 213.316 183.816 225.531 154.077 226.516C124.337 227.501 95.3288 217.183 72.8904 197.641C50.452 178.098 36.2497 150.78 33.1424 121.187C30.0352 91.5941 38.2536 61.9226 56.1434 38.1452L191.589 173.575L214.434 150.731L172.849 109.145L243.857 38.1452C260.98 60.8088 269.33 88.9001 267.367 117.237C265.404 145.575 253.26 172.246 233.175 192.332Z" fill="#F6F6F6"/>
</g>
<defs>
<clipPath id="clip0_2110_14">
<rect width="300" height="259" fill="white"/>
</clipPath>
</defs>
</svg>
