<?xml version="1.0" encoding="utf-8"?>
<!-- Generator: Adobe Illustrator 25.4.1, SVG Export Plug-In . SVG Version: 6.00 Build 0)  -->
<svg version="1.1" id="Layer_1" xmlns="http://www.w3.org/2000/svg" xmlns:xlink="http://www.w3.org/1999/xlink" x="0px" y="0px"
	 viewBox="0 0 915.7 198" style="enable-background:new 0 0 915.7 198;" xml:space="preserve">
<style type="text/css">
	.st0{fill:#222222;}
</style>
<path class="st0" d="M79.7,2.1c16-3.2,32.5-2.4,48.1,2.4c15.5,4.7,29.7,13.2,41.2,24.7c9.2,9.2,16.5,20.1,21.5,32.1
	s7.5,24.9,7.5,37.9c0,54.7-44.3,99-99,99c-16.3,0-32.3-4-46.7-11.7c-14.3-7.7-26.6-18.8-35.6-32.3S2.1,125.1,0.5,108.9
	s0.8-32.5,7.1-47.6c6.2-15,16.1-28.3,28.7-38.6C48.8,12.3,63.7,5.3,79.7,2.1z M98.5,101.9h21.6l-24.8,31.5v34
	c0.1-0.1,30.6-36.7,44.3-53.3c9.9-11.9,5.7-30.3-14.6-30.3c-1.8,0-3.8,0-3.8,0v-9.5L98.5,101.9z M121.2,31
	c-0.3,0.4-40.1,49.3-59.8,73.6c-5.5,6.7-8,14.2-8,22.8c0,6.5,0.1,19.9,0.1,20.4c0.7-0.1,17.9-18.6,17.9-18.7H90l16.5-21.2H85.3
	l0.1-0.1h-0.2l36-43.8C121.2,64.1,121.2,31.8,121.2,31z"/>
<g>
	<path class="st0" d="M266.6,124.9l-4.2,21.8h-18l20.7-95.4h22.2l18.5,95.4h-18.1l-4.1-21.8H266.6z M282.1,110.6l-3.2-20
		c-0.9-5.8-2.2-15.4-3.1-21.7h-0.3c-1,6.3-2.4,16.2-3.4,21.7l-3.5,19.9H282.1z"/>
	<path class="st0" d="M316.3,146.7V51.4h17L348,88.8c2.9,7.3,7.5,19.5,10.2,27.8h0.3c-0.7-10-1.9-26.6-1.9-44.1V51.4h16.3v95.4h-17
		l-14.5-36.3c-3.2-8-7.5-20.1-9.7-28.6h-0.3c0.5,9.6,1.2,24.3,1.2,43.5v21.4H316.3z"/>
	<path class="st0" d="M389.3,52.8c4.6-1.1,11.5-1.8,18.8-1.8c12,0,20.4,2.8,26.5,8.5c8.2,7.4,12.4,20,12.4,38.4
		c0,19.3-5,33-13.2,40.4c-6.5,6.2-15.9,9.2-29.2,9.2c-5.9,0-11.7-0.6-15.3-1.1V52.8z M407.8,132c1,0.3,2.3,0.3,3.3,0.3
		c9,0,16.7-8.7,16.7-35c0-19.6-5.1-31.5-16.3-31.5c-1.3,0-2.6,0.1-3.7,0.5V132z"/>
	<path class="st0" d="M471.6,124.9l-4.2,21.8h-18l20.7-95.4h22.2l18.5,95.4h-18.1l-4.1-21.8H471.6z M487.1,110.6l-3.2-20
		c-0.9-5.8-2.2-15.4-3.1-21.7h-0.3c-1,6.3-2.4,16.2-3.4,21.7l-3.5,19.9H487.1z"/>
	<path class="st0" d="M541.7,127.7c3.8,2.2,10.4,3.7,15.7,3.7c8.7,0,13.1-4.5,13.1-10.8c0-6.8-4.3-10.3-12.4-15.5
		c-13-8-18-18-18-26.7c0-15.3,10.2-28,30.1-28c6.3,0,12.2,1.8,15,3.4l-3,15.9c-2.7-1.7-6.8-3.3-12.1-3.3c-8,0-11.8,4.8-11.8,9.9
		c0,5.7,2.9,8.7,13.1,14.9c12.6,7.6,17.2,17.3,17.2,27.3c0,17.5-12.9,28.9-31.5,28.9c-7.7,0-15.1-1.9-18.3-3.8L541.7,127.7z"/>
	<path class="st0" d="M617.6,51.4v62c0,14,4.1,18.3,9.1,18.3c5.3,0,9.2-3.8,9.2-18.3v-62h18.6V110c0,24.6-9.3,37.8-27.7,37.8
		c-19.9,0-27.7-13.8-27.7-37.6V51.4H617.6z"/>
	<path class="st0" d="M670.3,52.8c5.6-1.2,13.1-1.8,21.1-1.8c8.8,0,17.6,1.1,24.1,6.7c5.1,4.3,7.2,10.7,7.2,17.4
		c0,8.5-4.4,16.6-13.8,20.8v0.5c11,3.2,16.9,12.3,16.9,22.8c0,7.9-2.5,14.1-7,18.7c-5.7,6.2-15.4,9.6-31.3,9.6c-7,0-13-0.4-17.2-1.1
		V52.8z M688.8,90.6h4c6.7,0,11.8-5.6,11.8-13.4c0-7-3.3-12.4-10.9-12.4c-2,0-3.7,0.2-4.9,0.6V90.6z M688.8,132.9
		c1.2,0.3,2.5,0.3,4.1,0.3c7.6,0,13.7-4.7,13.7-14.3c0-9.6-6.5-14.5-13.9-14.6h-4V132.9z"/>
	<path class="st0" d="M778.9,104.8h-21.7v25.8h24.5v16.1h-43.1V51.4h41.5v16.1h-22.9v21.9h21.7V104.8z"/>
	<path class="st0" d="M794.4,52.8c5.8-1.2,13.2-1.8,20.2-1.8c10.1,0,19.3,1.5,25.4,7.1c5.8,5.3,7.6,11.6,7.6,19.8
		c0,10.2-5,19.3-14.7,23.8v0.3c6.5,2.6,9.8,8.6,11.6,18.9c1.8,10.6,4.4,22.4,6.1,25.9h-19.4c-1.2-2.6-3.3-12.3-4.8-22.8
		c-1.6-11.9-4.6-15.2-10.8-15.2h-2.8v38h-18.5V52.8z M812.8,94.4h3.4c8.1,0,12.6-6.6,12.6-14.8c0-8.2-3.2-13.9-11.5-14.1
		c-1.7,0-3.5,0.1-4.5,0.6V94.4z"/>
	<path class="st0" d="M878.9,51.4v62c0,14,4.1,18.3,9.1,18.3c5.3,0,9.2-3.8,9.2-18.3v-62h18.6V110c0,24.6-9.3,37.8-27.7,37.8
		c-19.9,0-27.7-13.8-27.7-37.6V51.4H878.9z"/>
</g>
</svg>
