<?xml version="1.0" encoding="utf-8"?>
<!-- Generator: Adobe Illustrator 25.4.1, SVG Export Plug-In . SVG Version: 6.00 Build 0)  -->
<svg version="1.1" id="Layer_1" xmlns="http://www.w3.org/2000/svg" xmlns:xlink="http://www.w3.org/1999/xlink" x="0px" y="0px"
	 viewBox="0 0 198 198" style="enable-background:new 0 0 198 198;" xml:space="preserve">
<style type="text/css">
	.st0{fill:#222222;}
</style>
<path class="st0" d="M79.7,1.9c16-3.2,32.5-2.4,48.1,2.4C143.3,9,157.5,17.5,169,29c9.2,9.2,16.5,20.1,21.5,32.1
	c5,12,7.5,24.9,7.5,37.9c0,54.7-44.3,99-99,99c-16.3,0-32.3-4-46.7-11.7C38,178.6,25.7,167.5,16.7,154c-9-13.5-14.6-29.1-16.2-45.3
	c-1.6-16.2,0.8-32.5,7.1-47.6c6.2-15,16.1-28.3,28.7-38.6C48.8,12.1,63.7,5.1,79.7,1.9z M98.5,101.7h21.6l-24.8,31.5v34
	c0.1-0.1,30.6-36.7,44.3-53.3c9.9-11.9,5.7-30.3-14.6-30.3c-1.8,0-3.8,0-3.8,0v-9.5L98.5,101.7z M121.2,30.8
	c-0.3,0.4-40.1,49.3-59.8,73.6c-5.5,6.7-8,14.2-8,22.8c0,6.5,0.1,19.9,0.1,20.4c0.7-0.1,17.9-18.6,17.9-18.7h18.6l16.5-21.2H85.3
	l0.1-0.1h-0.2l36-43.8C121.2,63.9,121.2,31.6,121.2,30.8z"/>
</svg>
