<?xml version="1.0" encoding="utf-8"?>
<!-- Generator: Adobe Illustrator 25.4.1, SVG Export Plug-In . SVG Version: 6.00 Build 0)  -->
<svg version="1.1" id="Layer_1" xmlns="http://www.w3.org/2000/svg" xmlns:xlink="http://www.w3.org/1999/xlink" x="0px" y="0px"
	 viewBox="0 0 546.8 90.1" style="enable-background:new 0 0 546.8 90.1;" xml:space="preserve">
<style type="text/css">
	.st0{fill:#222222;}
</style>
<g id="Layer_2_00000167379304573326660330000004284328548530643363_">
	<g id="Layer_1-2">
		<path class="st0" d="M0,89.2v-8.9c0-4.5,0.3-9,0.8-13.4c0.6-4.5,1.2-8.9,2-13.3s1.7-8.8,2.6-13.2c1-4.4,2-8.8,3-13.2
			s2.1-8.8,3.3-13.1c1.1-4.4,2.3-8.7,3.5-13h15.4c1.2,4.3,2.4,8.7,3.5,13s2.2,8.7,3.2,13.1c1,4.4,2,8.8,3,13.2s1.9,8.8,2.7,13.2
			c0.8,4.4,1.5,8.8,2,13.3c0.6,4.5,0.8,8.9,0.8,13.4v8.9H32.5v-8.9c0-1.8-0.1-3.5-0.2-5.3c-0.1-1.8-0.3-3.6-0.4-5.5h-18
			c-0.2,1.8-0.3,3.7-0.4,5.5s-0.2,3.6-0.2,5.3v8.9L0,89.2z M15.2,58h15.4c-1-7.1-2.1-14.2-3.4-21.3s-2.7-14.2-4.3-21.2
			c-1.5,7-2.9,14.1-4.3,21.2S16.2,50.9,15.2,58z"/>
		<path class="st0" d="M52,89.2V1h16.3l16.2,34.6V1h13.3v88.2H84.5V62.3L65.3,21.5v67.7H52z"/>
		<path class="st0" d="M106,89.2V1h15.1c2,0,4.1,0.1,6.1,0.4c2,0.3,4,0.8,5.9,1.7c1.9,0.8,3.6,1.9,5.3,3.1c1.6,1.2,3.1,2.6,4.4,4.2
			c1.3,1.6,2.5,3.2,3.5,5c1,1.8,1.9,3.6,2.7,5.5c0.8,1.9,1.4,3.8,1.9,5.8c0.5,2,0.9,4,1.1,6.1c0.3,2,0.5,4.1,0.6,6.1
			c0.1,2,0.2,4.1,0.2,6.1s-0.1,4.1-0.2,6.2c-0.1,2-0.3,4.1-0.6,6.1c-0.3,2-0.7,4.1-1.1,6.1c-0.5,2-1.1,3.9-1.9,5.8
			c-0.8,1.9-1.7,3.7-2.7,5.5c-1,1.8-2.2,3.4-3.5,5c-1.3,1.6-2.8,3-4.4,4.2c-1.6,1.2-3.4,2.3-5.3,3.1c-1.9,0.8-3.8,1.4-5.9,1.7
			c-2,0.3-4,0.4-6.1,0.4L106,89.2z M119.3,77.6h1.8c1.4,0,2.7-0.2,4.1-0.5c1.4-0.3,2.7-0.9,3.8-1.7c1.1-0.8,2.2-1.7,3.1-2.8
			c0.9-1,1.7-2.2,2.4-3.4c0.7-1.2,1.3-2.5,1.8-3.8c0.5-1.3,1-2.6,1.3-4c0.4-1.3,0.7-2.7,0.9-4.1c0.2-1.4,0.4-2.7,0.5-4.1
			s0.2-2.7,0.3-4.1c0.1-1.4,0.1-2.8,0.1-4.1c0-1.4,0-2.9-0.1-4.3c-0.1-1.4-0.2-2.8-0.3-4.1c-0.1-1.3-0.3-2.7-0.5-4.1
			c-0.2-1.4-0.5-2.7-0.9-4.1c-0.4-1.4-0.8-2.7-1.3-4c-0.5-1.3-1.1-2.6-1.8-3.8c-0.7-1.2-1.5-2.4-2.4-3.4c-0.9-1-2-1.9-3.1-2.7
			c-1.2-0.8-2.4-1.3-3.8-1.6c-1.3-0.3-2.7-0.5-4.1-0.5h-1.8L119.3,77.6z"/>
		<path class="st0" d="M157,89.2v-8.9c0-4.5,0.3-9,0.8-13.4c0.6-4.5,1.2-8.9,2-13.3s1.7-8.8,2.6-13.2c1-4.4,2-8.8,3-13.2
			c1-4.4,2.1-8.8,3.3-13.1c1.1-4.4,2.3-8.7,3.5-13h15.4c1.2,4.3,2.4,8.7,3.5,13s2.2,8.7,3.2,13.1c1,4.4,2,8.8,3,13.2
			s1.9,8.8,2.7,13.2c0.8,4.4,1.5,8.8,2,13.3c0.6,4.5,0.8,8.9,0.8,13.4v8.9h-13.3v-8.9c0-1.8-0.1-3.5-0.2-5.3s-0.3-3.6-0.4-5.5h-18
			c-0.2,1.8-0.3,3.7-0.4,5.5s-0.2,3.6-0.2,5.3v8.9L157,89.2z M172.2,58h15.4c-1-7.1-2.1-14.2-3.4-21.3c-1.3-7.1-2.7-14.1-4.3-21.2
			c-1.5,7-2.9,14-4.3,21.1S173.2,50.9,172.2,58z"/>
		<path class="st0" d="M255.8,90.1c-2.1,0-4.1-0.2-6.2-0.5c-2-0.3-4-0.9-5.9-1.9c-1.9-0.9-3.6-2.1-5.2-3.5c-1.5-1.4-2.8-3-3.8-4.8
			c-1-1.8-1.8-3.7-2.2-5.8c-0.5-2-0.7-4.1-0.7-6.2v-1.1h13.3V67c0,1.5,0.2,3,0.7,4.4c0.4,1.4,1.1,2.8,2.1,3.9c0.9,1.1,2.2,2,3.5,2.5
			c1.4,0.5,2.9,0.8,4.4,0.8c1.5,0,2.9-0.3,4.3-0.8c1.4-0.5,2.6-1.3,3.6-2.5c1-1.1,1.7-2.4,2.1-3.8c0.4-1.4,0.7-2.9,0.7-4.3
			c0-2-0.4-3.9-1.2-5.8c-0.8-1.8-1.9-3.5-3.3-4.9c-1.3-1.4-2.9-2.6-4.6-3.6l-5.2-2.9c-1.7-1-3.4-2-5.1-3c-1.7-1-3.2-2.2-4.7-3.5
			c-1.5-1.3-2.8-2.8-4-4.4c-1.2-1.6-2.2-3.2-3.1-5c-0.8-1.8-1.5-3.7-1.9-5.6c-0.4-1.9-0.6-3.9-0.6-5.8c0-2.1,0.2-4.1,0.7-6.1
			c0.4-2,1.1-3.9,2-5.7c1.9-3.7,4.9-6.6,8.5-8.5c1.8-0.9,3.8-1.6,5.9-1.9c4-0.7,8.1-0.7,12.1,0c2,0.3,3.9,1,5.8,1.9
			c1.8,0.9,3.4,2.1,4.8,3.5c1.4,1.4,2.6,3.1,3.6,4.9c1,1.8,1.7,3.7,2.1,5.7c0.4,2,0.7,4,0.7,6v1.1h-13.3v-0.5c0-1.4-0.2-2.9-0.5-4.3
			c-0.4-1.4-1-2.7-1.8-3.8c-0.8-1.2-1.9-2.1-3.2-2.6c-1.3-0.6-2.7-0.9-4.1-0.9c-1.4,0-2.8,0.3-4.1,0.8c-1.3,0.5-2.4,1.4-3.2,2.5
			c-0.8,1.1-1.5,2.4-1.8,3.8c-0.4,1.4-0.5,2.8-0.5,4.3c0,1.9,0.4,3.9,1.2,5.6c0.8,1.8,1.9,3.5,3.2,4.9c1.3,1.4,2.9,2.6,4.6,3.6
			c1.7,1,3.4,1.9,5.2,2.8c1.7,0.9,3.4,1.9,5,3c1.6,1.1,3.2,2.3,4.7,3.6c1.5,1.3,2.8,2.8,4,4.3c1.2,1.5,2.2,3.2,3,5
			c0.8,1.8,1.4,3.7,1.9,5.6c0.4,1.9,0.7,3.9,0.7,5.9c0,2.1-0.2,4.2-0.7,6.2c-0.5,2-1.2,4-2.2,5.8c-1,1.8-2.3,3.5-3.8,4.9
			c-1.5,1.4-3.2,2.6-5.1,3.5c-1.9,0.9-3.9,1.5-5.9,1.9C260,89.9,257.9,90.1,255.8,90.1z"/>
		<path class="st0" d="M309.9,90.1c-2.2,0-4.3-0.2-6.5-0.7c-2.1-0.4-4.2-1.2-6-2.3c-1.9-1.1-3.5-2.6-4.9-4.3
			c-1.4-1.7-2.5-3.6-3.4-5.6c-0.8-2-1.4-4.1-1.7-6.3c-0.3-2.1-0.5-4.3-0.5-6.5V1h13.3v63.6c0,1.1,0.1,2.1,0.2,3.2
			c0.1,1.1,0.3,2.1,0.6,3.1c0.3,1,0.7,2,1.1,2.9c0.5,1,1.1,1.8,1.9,2.6c0.8,0.8,1.7,1.3,2.7,1.7c2,0.7,4.2,0.7,6.2,0
			c1-0.3,1.9-0.9,2.7-1.7c0.8-0.8,1.4-1.6,1.9-2.6c0.5-0.9,0.9-1.9,1.1-2.9c0.3-1,0.5-2.1,0.6-3.1c0.1-1.1,0.2-2.1,0.2-3.2V1h13.3
			v63.6c0,2.2-0.2,4.3-0.5,6.5c-0.3,2.1-0.9,4.2-1.7,6.2c-0.8,2-2,3.9-3.4,5.6c-1.4,1.7-3,3.1-4.9,4.3c-1.8,1.1-3.9,1.9-6,2.3
			C314.3,89.9,312.1,90.1,309.9,90.1z"/>
		<path class="st0" d="M362.1,89.2H341V1h21.1c2.1,0,4.2,0.2,6.3,0.6c2.1,0.4,4.1,1,6,2c1.9,1,3.6,2.2,5,3.8
			c1.5,1.5,2.7,3.3,3.6,5.2c0.9,1.9,1.6,3.9,1.9,6c0.4,2.1,0.5,4.2,0.5,6.3c0,1.8-0.1,3.7-0.4,5.5c-0.3,1.8-0.8,3.5-1.6,5.1
			c-0.8,1.6-1.8,3.1-3.1,4.4c-1.3,1.3-2.7,2.5-4.3,3.4c2,0.9,3.8,2,5.5,3.4c1.7,1.3,3.1,3,4.1,4.8c1.1,1.8,1.9,3.8,2.3,5.9
			c0.4,2.1,0.7,4.3,0.7,6.4c0,2.3-0.2,4.7-0.7,7c-0.4,2.3-1.2,4.5-2.3,6.5c-1.1,2-2.6,3.9-4.3,5.5c-1.7,1.6-3.7,2.9-5.8,3.9
			c-2.1,1-4.3,1.7-6.6,2C366.8,89,364.4,89.2,362.1,89.2z M354.3,37.8h7.8c1.5,0,3.1-0.3,4.4-1c1.4-0.6,2.6-1.7,3.4-3
			c0.8-1.3,1.4-2.7,1.7-4.2c0.6-3,0.6-6.1,0-9.1c-0.3-1.5-0.9-2.9-1.8-4.1c-0.9-1.2-2.1-2.2-3.4-2.9c-1.4-0.7-2.9-1-4.4-1h-7.8
			L354.3,37.8z M354.3,77.6h7.8c1.8,0,3.7-0.3,5.4-0.9c1.7-0.6,3.3-1.6,4.5-2.9c1.2-1.4,2.2-3,2.6-4.8c0.5-1.8,0.8-3.7,0.8-5.5
			c0-1.8-0.3-3.7-0.8-5.5c-0.5-1.8-1.4-3.4-2.6-4.8c-1.2-1.4-2.8-2.4-4.5-3c-1.8-0.6-3.6-0.9-5.5-0.9h-7.8L354.3,77.6z"/>
		<path class="st0" d="M395,89.2V1h44.9v11.5h-31.6v25.1H433v11.5h-24.7v28.6h31.6v11.5H395z"/>
		<path class="st0" d="M447,89.2V1h23.5c2.2,0,4.5,0.3,6.7,0.8c2.2,0.5,4.3,1.4,6.2,2.6c1.9,1.2,3.6,2.7,5,4.5
			c1.4,1.8,2.5,3.7,3.3,5.8c0.8,2.1,1.4,4.3,1.7,6.5c0.3,2.2,0.5,4.5,0.5,6.7c0,2.6-0.2,5.1-0.6,7.6c-0.4,2.5-1.1,4.9-2.2,7.2
			c-2.2,4.6-6,8.2-10.6,10.3c1.7,2.7,3.3,5.5,4.9,8.4c1.6,2.9,3,5.8,4.2,8.8c1.2,3,2.3,6.1,3.1,9.2c0.8,3.2,1.3,6.4,1.3,9.7h-13.3
			c0-3.2-0.5-6.3-1.4-9.3c-0.9-3-2-6-3.4-8.8c-1.3-2.9-2.8-5.6-4.4-8.3c-1.6-2.7-3.3-5.4-5.1-7.9h-5.9v34.4H447z M460.3,43.2h10.2
			c1.1,0,2.3-0.2,3.3-0.7c1.1-0.4,2-1.1,2.8-1.9c0.8-0.8,1.5-1.8,1.9-2.8c0.5-1,0.8-2.1,1.1-3.2c0.3-1.1,0.5-2.2,0.6-3.4
			c0.2-2.3,0.2-4.6,0-6.8c-0.1-1.1-0.3-2.3-0.6-3.4c-0.3-1.1-0.7-2.2-1.1-3.2c-0.5-1-1.1-2-1.9-2.8c-0.8-0.8-1.8-1.4-2.8-1.9
			c-1-0.4-2.2-0.7-3.3-0.7h-10.2V43.2z"/>
		<path class="st0" d="M523.9,90.1c-2.2,0-4.3-0.2-6.5-0.7c-2.1-0.4-4.2-1.2-6-2.3c-1.9-1.1-3.5-2.6-4.9-4.3
			c-1.4-1.7-2.5-3.6-3.4-5.6c-0.8-2-1.4-4.1-1.7-6.3c-0.3-2.1-0.5-4.3-0.5-6.5V1h13.3v63.6c0,1.1,0.1,2.1,0.2,3.2
			c0.1,1.1,0.3,2.1,0.6,3.1c0.3,1,0.7,2,1.1,2.9c0.5,1,1.1,1.8,1.9,2.6c0.8,0.8,1.7,1.3,2.7,1.7c2,0.7,4.2,0.7,6.2,0
			c1-0.3,1.9-0.9,2.7-1.7c0.8-0.8,1.4-1.6,1.9-2.6c0.5-0.9,0.9-1.9,1.1-2.9c0.3-1,0.5-2.1,0.6-3.1c0.1-1.1,0.2-2.1,0.2-3.2V1h13.3
			v63.6c0,2.2-0.2,4.3-0.5,6.5c-0.3,2.1-0.9,4.2-1.7,6.2c-0.8,2-2,3.9-3.4,5.6c-1.4,1.7-3,3.1-4.9,4.3c-1.8,1.1-3.9,1.9-6,2.3
			C528.3,89.9,526.1,90.1,523.9,90.1z"/>
	</g>
</g>
</svg>
