<?xml version="1.0" encoding="utf-8"?>
<!-- Generator: Adobe Illustrator 25.4.1, SVG Export Plug-In . SVG Version: 6.00 Build 0)  -->
<svg version="1.1" id="Layer_1" focusable="false" xmlns="http://www.w3.org/2000/svg" xmlns:xlink="http://www.w3.org/1999/xlink"
	 x="0px" y="0px" viewBox="0 0 800 800" style="enable-background:new 0 0 800 800;" xml:space="preserve">
<style type="text/css">
	.st0{fill:#222222;}
</style>
<path class="st0" d="M587.5,433.1c-31.5,0-61-13.3-87.8-35.1l6.5-30.7l0.2-1.2c5.9-32.7,24.3-87.4,81.1-87.4
	c42.6,0,77.2,34.6,77.2,77.2C664.7,398.4,630.1,433.1,587.5,433.1L587.5,433.1z M587.5,200.5c-72.5,0-128.9,47.1-151.7,124.7
	c-34.9-52.4-61.4-115.3-76.8-168.3h-78.2v203.2c-0.1,40.2-32.6,72.7-72.8,72.8c-40.1-0.1-72.7-32.7-72.7-72.8V156.9H57.1v203.2
	c0,83.3,67.7,151.5,150.9,151.5c83.2,0,150.9-68.3,150.9-151.5v-34c15.1,31.6,33.8,63.7,56.4,92l-47.8,224.9h79.9l34.7-163.1
	c30.4,19.4,65.3,31.7,105.3,31.7c85.7,0,155.4-70.1,155.4-155.7C742.9,270.2,673.2,200.5,587.5,200.5L587.5,200.5z"/>
</svg>
