<svg width="441" height="440" viewBox="0 0 441 440" fill="none" xmlns="http://www.w3.org/2000/svg">
<path d="M420.5 220C420.5 109.543 330.957 20 220.5 20C110.043 20 20.5 109.543 20.5 220C20.5 330.457 110.043 420 220.5 420C330.957 420 420.5 330.457 420.5 220ZM440.5 220C440.5 341.503 342.003 440 220.5 440C98.9974 440 0.5 341.503 0.5 220C0.5 98.4974 98.9974 0 220.5 0C342.003 0 440.5 98.4974 440.5 220Z" fill="#1A1A1A"/>
<path d="M219.745 294.012C219.745 292.259 220.321 290.556 221.383 289.162L264.975 231.968C265.978 230.651 265.04 228.755 263.384 228.755H223.344C221.676 228.755 220.741 226.835 221.769 225.522L262.678 173.294C263.85 171.797 266.253 172.626 266.253 174.527V189.257C266.253 190.362 267.148 191.257 268.253 191.257H275.509C311.754 193.9 322.469 228.329 310.038 250.842C309.989 250.931 309.932 251.016 309.87 251.096L223.324 362.397C222.155 363.901 219.745 363.074 219.745 361.17V294.012ZM144.138 234.52C148.776 228.069 243.147 103.495 262.718 77.6646C263.876 76.1366 266.253 77.0339 266.253 78.9509V143.363C266.253 145.121 265.673 146.831 264.604 148.227L195.045 239.056C194.037 240.372 194.975 242.272 196.633 242.272H234.074C235.735 242.272 236.672 244.18 235.656 245.495L205.051 285.109C203.536 287.069 201.198 288.218 198.721 288.218H168.015C165.708 288.218 163.513 289.214 161.994 290.951L131.505 325.807C130.289 327.197 128 326.337 128 324.49V277.096C128 259.046 136.324 245.386 144.138 234.52Z" fill="#1A1A1A"/>
</svg>
