<svg width="500" height="233" viewBox="0 0 500 233" fill="none" xmlns="http://www.w3.org/2000/svg">
<path d="M457.978 232.921C435.578 232.921 429.398 214.228 429.398 193.836V154.441H444.538V193.836C444.538 210.211 450.872 217.627 463.385 217.627C470.028 217.627 484.859 212.22 484.859 183.33V154.441H499.999V231.685H484.859V216.854C484.859 213.61 485.477 209.593 486.095 206.504L485.786 206.349C482.851 220.871 474.354 232.921 457.978 232.921Z" fill="#1A1A1A"/>
<path d="M369.656 175.451C369.656 161.547 376.145 154.75 390.203 154.75H421.255V168.963L395.147 169.117C386.495 169.117 384.796 170.044 384.796 180.704V231.994H369.656V175.451Z" fill="#1A1A1A"/>
<path d="M319.474 232.921C296.61 233.076 277.145 220.099 277.145 193.372C277.145 166.646 296.61 153.669 319.474 153.824C342.183 153.978 360.567 166.646 360.567 193.372C360.567 195.535 360.567 195.69 360.258 197.698H292.902C295.219 212.992 305.57 220.717 319.783 220.562C331.678 220.408 341.102 216.7 345.428 205.268L359.331 207.122C353.461 225.815 337.703 232.767 319.474 232.921ZM319.783 165.719C306.034 165.565 291.357 176.07 292.902 197.698C295.219 189.356 298.927 188.429 306.343 188.429H346.2C344.037 172.671 333.841 165.874 319.783 165.719Z" fill="#1A1A1A"/>
<path d="M199.683 231.994H184.543V123.854H199.683V164.793C199.683 168.346 198.756 172.826 197.674 176.225H197.983C199.065 172.98 200.764 168.5 203.236 166.028C210.342 158.613 223.01 153.67 233.206 153.824C256.07 153.979 269.974 166.646 269.974 193.373C269.974 220.099 256.07 232.921 233.206 232.921C223.01 232.921 210.342 228.596 203.236 221.335C200.764 218.863 199.065 214.383 197.983 211.139L197.674 211.293C198.756 214.537 199.683 219.018 199.683 222.571V231.994ZM199.683 193.373C199.683 210.057 214.513 219.79 228.263 219.79C247.11 219.79 254.834 211.602 254.834 193.373C254.834 175.452 246.801 166.492 228.263 166.337C214.513 166.183 199.683 176.688 199.683 193.373Z" fill="#1A1A1A"/>
<path d="M127.889 232.921C105.488 232.921 99.3086 214.228 99.3086 193.836V154.441H114.448V193.836C114.448 210.211 120.782 217.627 133.296 217.627C139.939 217.627 154.769 212.22 154.769 183.33V154.441H169.909V231.685H154.769V216.854C154.769 213.61 155.387 209.593 156.005 206.504L155.696 206.349C152.761 220.871 144.264 232.921 127.889 232.921Z" fill="#1A1A1A"/>
<path d="M0.617188 200.789L15.2934 198.935C16.2203 211.294 27.4978 218.4 44.8003 218.555C64.2656 218.555 75.6977 211.603 75.6977 198.471C75.6977 173.135 2.31654 192.91 2.31654 154.597C2.31654 132.969 21.3184 122 45.4183 122.309C67.6643 122.618 84.6579 132.351 86.5117 151.507L71.99 153.515C71.0631 142.856 63.1842 136.522 45.4183 136.522C27.8068 136.522 17.4562 143.165 17.4562 154.597C17.4562 177.306 90.8373 157.223 90.8373 198.008C90.8373 212.839 82.0316 232.767 44.9548 232.767C10.8133 232.767 1.69859 216.392 0.617188 200.789Z" fill="#1A1A1A"/>
<path d="M346.327 89.1392C342.002 102.116 328.252 107.987 314.967 107.987C299.827 107.987 284.996 100.262 284.996 86.204C284.996 52.2168 346.791 71.8367 346.327 58.8598C345.864 47.1188 338.294 42.6386 323.618 42.6386C311.722 42.6386 302.299 45.5739 300.599 57.7784L287.313 55.9245C289.322 37.2316 307.088 30.2797 323.618 30.4342C342.311 30.5886 360.849 37.5406 360.849 60.7136V88.8303C360.849 92.8469 362.239 93.7739 365.484 93.7739H369.037V108.141H359.15C351.425 108.141 346.327 102.734 346.327 95.9367V89.1392ZM299.827 85.895C299.827 94.0828 308.633 97.7905 318.674 97.7905C331.497 97.7905 346.327 91.611 346.327 80.7969V70.6008C333.041 78.3251 299.827 67.3566 299.827 85.895Z" fill="#1A1A1A"/>
<path d="M191.309 69.5192C191.309 42.7929 205.058 30.125 228.076 29.9705C238.273 29.816 251.095 34.7596 258.201 42.175C260.673 44.6468 262.372 49.1269 263.454 52.3711H263.763C262.681 48.9724 261.754 44.4923 261.754 40.9391V0H276.894V108.141H261.754V98.7172C261.754 95.164 262.681 90.6839 263.763 87.4397L263.454 87.2852C262.372 90.5294 260.673 95.0096 258.201 97.4814C250.94 104.742 238.273 109.068 228.076 109.068C205.058 109.068 191.309 96.2455 191.309 69.5192ZM233.02 42.484C214.173 42.6384 206.448 51.2897 206.448 69.5192C206.448 87.7487 214.327 96.091 233.02 96.091C246.769 96.091 261.754 86.2038 261.754 69.5192C261.754 52.8346 246.769 42.3295 233.02 42.484Z" fill="#1A1A1A"/>
<path d="M111.676 108.14V30.8961H126.815V46.8082C126.815 49.898 126.198 54.0691 125.58 57.1589L125.889 57.3133C126.506 54.2236 127.433 50.0525 128.978 47.2717C135.312 35.0672 146.435 29.6602 156.786 29.6602C176.251 29.6602 182.74 48.3531 182.74 68.7454V108.14H167.6V68.7454C167.6 54.0691 162.193 44.7999 151.688 44.7999C143.809 44.7999 126.815 50.3614 126.815 79.2505V108.14H111.676Z" fill="#1A1A1A"/>
<path d="M16.3756 108.141H0L40.7845 0H62.876L103.66 108.141H87.4394L77.3978 82.3416H26.1082L16.3756 108.141ZM51.753 13.5949L30.8973 68.9012C43.8742 68.9012 52.8344 68.7468 59.4773 69.5192C65.9658 70.1371 72.4542 72.9179 76.9343 80.7968L51.753 13.5949Z" fill="#1A1A1A"/>
</svg>
