<svg width="899" height="112" viewBox="0 0 899 112" fill="none" xmlns="http://www.w3.org/2000/svg">
<path d="M856.361 110.618C833.961 110.618 827.781 91.9252 827.781 71.5329V32.1387H842.921V71.5329C842.921 87.9085 849.255 95.3239 861.768 95.3239C868.411 95.3239 883.242 89.9168 883.242 61.0278V32.1387H898.382V109.382H883.242V94.5515C883.242 91.3072 883.86 87.2906 884.478 84.2008L884.169 84.0463C881.234 98.5681 872.737 110.618 856.361 110.618Z" fill="#1A1A1A"/>
<path d="M768.039 53.1485C768.039 39.2447 774.527 32.4473 788.586 32.4473H819.638V46.6601L793.529 46.8146C784.878 46.8146 783.179 47.7415 783.179 58.4011V109.691H768.039V53.1485Z" fill="#1A1A1A"/>
<path d="M717.861 110.618C694.997 110.773 675.531 97.7959 675.531 71.0696C675.531 44.3433 694.997 31.3664 717.861 31.5209C740.57 31.6754 758.954 44.3433 758.954 71.0696C758.954 73.2324 758.954 73.3869 758.645 75.3952H691.289C693.606 90.6895 703.957 98.4138 718.17 98.2593C730.065 98.1048 739.489 94.3971 743.814 82.9651L757.718 84.8189C751.848 103.512 736.09 110.464 717.861 110.618ZM718.17 43.4164C704.42 43.2619 689.744 53.767 691.289 75.3952C693.606 67.0529 697.314 66.126 704.729 66.126H744.587C742.424 50.3683 732.228 43.5709 718.17 43.4164Z" fill="#1A1A1A"/>
<path d="M598.062 109.692H582.922V1.55078H598.062V42.4899C598.062 46.0431 597.135 50.5232 596.053 53.9219H596.362C597.444 50.6777 599.143 46.1975 601.615 43.7257C608.721 36.3104 621.389 31.3668 631.585 31.5213C654.449 31.6758 668.353 44.3437 668.353 71.07C668.353 97.7962 654.449 110.619 631.585 110.619C621.389 110.619 608.721 106.293 601.615 99.0321C599.143 96.5603 597.444 92.0802 596.362 88.836L596.053 88.9905C597.135 92.2347 598.062 96.7148 598.062 100.268V109.692ZM598.062 71.07C598.062 87.7546 612.892 97.4873 626.642 97.4873C645.489 97.4873 653.213 89.2994 653.213 71.07C653.213 53.1495 645.18 44.1892 626.642 44.0347C612.892 43.8802 598.062 54.3854 598.062 71.07Z" fill="#1A1A1A"/>
<path d="M526.268 110.618C503.867 110.618 497.688 91.9252 497.688 71.5329V32.1387H512.827V71.5329C512.827 87.9085 519.161 95.3239 531.675 95.3239C538.317 95.3239 553.148 89.9168 553.148 61.0278V32.1387H568.288V109.382H553.148V94.5515C553.148 91.3072 553.766 87.2906 554.384 84.2008L554.075 84.0463C551.14 98.5681 542.643 110.618 526.268 110.618Z" fill="#1A1A1A"/>
<path d="M399 78.4858L413.676 76.6319C414.603 88.9909 425.881 96.0973 443.183 96.2518C462.648 96.2518 474.08 89.2999 474.08 76.1685C474.08 50.8326 400.699 70.607 400.699 32.2942C400.699 10.666 419.701 -0.30262 443.801 0.00635021C466.047 0.31533 483.041 10.048 484.895 29.2044L470.373 31.2127C469.446 20.5531 461.567 14.2192 443.801 14.2192C426.19 14.2192 415.839 20.8621 415.839 32.2942C415.839 55.0038 489.22 34.9204 489.22 75.705C489.22 90.5358 480.414 110.465 443.338 110.465C409.196 110.465 400.081 94.089 399 78.4858Z" fill="#1A1A1A"/>
<path d="M346.331 91.1392C342.006 104.116 328.256 109.987 314.97 109.987C299.831 109.987 285 102.262 285 88.204C285 54.2168 346.795 73.8367 346.331 60.8598C345.868 49.1188 338.298 44.6386 323.622 44.6386C311.726 44.6386 302.303 47.5739 300.603 59.7784L287.317 57.9245C289.326 39.2316 307.092 32.2797 323.622 32.4342C342.315 32.5886 360.853 39.5406 360.853 62.7136V90.8303C360.853 94.8469 362.243 95.7739 365.488 95.7739H369.041V110.141H359.154C351.429 110.141 346.331 104.734 346.331 97.9367V91.1392ZM299.831 87.895C299.831 96.0828 308.636 99.7905 318.678 99.7905C331.5 99.7905 346.331 93.611 346.331 82.7969V72.6008C333.045 80.3251 299.831 69.3566 299.831 87.895Z" fill="#1A1A1A"/>
<path d="M191.305 71.5192C191.305 44.7929 205.054 32.125 228.072 31.9705C238.269 31.816 251.091 36.7596 258.197 44.175C260.669 46.6468 262.368 51.1269 263.45 54.3711H263.759C262.677 50.9724 261.751 46.4923 261.751 42.9391V2H276.89V110.141H261.751V100.717C261.751 97.164 262.677 92.6839 263.759 89.4397L263.45 89.2852C262.368 92.5294 260.669 97.0096 258.197 99.4814C250.936 106.742 238.269 111.068 228.072 111.068C205.054 111.068 191.305 98.2455 191.305 71.5192ZM233.016 44.484C214.169 44.6384 206.444 53.2897 206.444 71.5192C206.444 89.7487 214.323 98.091 233.016 98.091C246.765 98.091 261.751 88.2038 261.751 71.5192C261.751 54.8346 246.765 44.3295 233.016 44.484Z" fill="#1A1A1A"/>
<path d="M111.672 110.14V32.8961H126.812V48.8082C126.812 51.898 126.194 56.0691 125.576 59.1589L125.885 59.3133C126.503 56.2236 127.43 52.0525 128.974 49.2717C135.308 37.0672 146.431 31.6602 156.782 31.6602C176.247 31.6602 182.736 50.3531 182.736 70.7454V110.14H167.596V70.7454C167.596 56.0691 162.189 46.7999 151.684 46.7999C143.805 46.7999 126.812 52.3614 126.812 81.2505V110.14H111.672Z" fill="#1A1A1A"/>
<path d="M16.3756 110.141H0L40.7845 2H62.876L103.66 110.141H87.4394L77.3978 84.3416H26.1082L16.3756 110.141ZM51.753 15.5949L30.8973 70.9012C43.8742 70.9012 52.8344 70.7468 59.4773 71.5192C65.9658 72.1371 72.4542 74.9179 76.9343 82.7968L51.753 15.5949Z" fill="#1A1A1A"/>
</svg>
