<?xml version="1.0" encoding="utf-8"?>
<!-- Generator: Adobe Illustrator 25.4.1, SVG Export Plug-In . SVG Version: 6.00 Build 0)  -->
<svg version="1.1" id="Layer_1" xmlns="http://www.w3.org/2000/svg" xmlns:xlink="http://www.w3.org/1999/xlink" x="0px" y="0px"
	 viewBox="0 0 800 800" style="enable-background:new 0 0 800 800;" xml:space="preserve">
<style type="text/css">
	.st0{fill:#FFFFFF;}
</style>
<path class="st0" d="M548,33.8H252C131.6,33.9,33.9,131.5,33.8,252v296c0.1,120.5,97.7,218.1,218.2,218.2h296
	c120.4-0.1,218-97.8,218.1-218.2V252C766.1,131.5,668.4,33.9,548,33.8z M692.5,548c0,79.8-64.7,144.5-144.5,144.5H252
	c-79.8,0-144.5-64.7-144.5-144.5l0,0V252c0-79.8,64.6-144.5,144.4-144.5c0,0,0,0,0.1,0h296c79.8,0,144.5,64.7,144.5,144.5V548z"/>
<path class="st0" d="M400,210.7c-104.5,0-189.3,84.9-189.3,189.3S295.6,589.3,400,589.3S589.3,504.4,589.3,400
	S504.5,210.7,400,210.7z M400,515.7c-63.9,0-115.7-51.8-115.7-115.7S336.1,284.3,400,284.3S515.7,336.1,515.7,400
	S463.9,515.7,400,515.7z M589.7,166.7c25.1,0,45.4,20.3,45.3,45.4s-20.3,45.4-45.4,45.3c-25,0-45.3-20.3-45.3-45.3
	S561.3,166.7,589.7,166.7z"/>
</svg>
