<svg width="170" height="170" viewBox="0 0 170 170" fill="none" xmlns="http://www.w3.org/2000/svg">
<path d="M108.737 28H62.2608C53.1768 28.0083 44.4673 31.6204 38.0439 38.0436C31.6206 44.4667 28.0083 53.1759 28 62.2595L28 108.734C28.0066 117.819 31.6182 126.53 38.0417 132.954C44.4652 139.379 53.1757 142.992 62.2608 143H108.737C117.823 142.993 126.535 139.381 132.96 132.956C139.385 126.532 142.998 117.82 143.004 108.734V62.2595C142.999 53.1738 139.387 44.4617 132.962 38.0377C126.536 31.6137 117.823 28.0033 108.737 28ZM131.435 108.734C131.434 114.754 129.043 120.526 124.786 124.783C120.53 129.039 114.757 131.43 108.737 131.431H62.2608C59.2807 131.431 56.3298 130.845 53.5765 129.704C50.8233 128.564 48.3215 126.893 46.2142 124.786C44.1069 122.679 42.4353 120.177 41.2948 117.424C40.1543 114.671 39.5673 111.72 39.5673 108.74V62.2595C39.5668 56.2427 41.9561 50.472 46.2098 46.2165C50.4635 41.961 56.2333 39.5691 62.2503 39.5669H108.737C114.755 39.568 120.527 41.9592 124.783 46.2147C129.038 50.4701 131.429 56.2414 131.431 62.2595L131.435 108.734Z" fill="#FAF9F7"/>
<path d="M85.5019 55.7675C69.0981 55.7675 55.7681 69.1033 55.7681 85.5002C55.7681 101.897 69.1044 115.233 85.5019 115.233C101.899 115.233 115.236 101.897 115.236 85.5002C115.236 69.1033 101.906 55.7675 85.5019 55.7675ZM85.5019 103.666C81.9087 103.667 78.396 102.602 75.408 100.607C72.42 98.611 70.0909 95.7741 68.7153 92.4548C67.3396 89.1355 66.9793 85.4829 67.6798 81.9588C68.3803 78.4347 70.1101 75.1975 72.6506 72.6565C75.191 70.1155 78.428 68.385 81.952 67.6837C85.4761 66.9825 89.129 67.342 92.4487 68.7168C95.7685 70.0916 98.6059 72.4199 100.602 75.4074C102.599 78.3948 103.664 81.9072 103.664 85.5002C103.664 90.3172 101.75 94.9368 98.3442 98.3433C94.9383 101.75 90.319 103.664 85.5019 103.666ZM115.298 48.8633C116.707 48.8645 118.083 49.2832 119.254 50.0665C120.424 50.8497 121.337 51.9623 121.875 53.2638C122.413 54.5652 122.554 55.997 122.279 57.3783C122.004 58.7596 121.325 60.0283 120.33 61.0242C119.334 62.0201 118.065 62.6985 116.683 62.9735C115.302 63.2486 113.87 63.1081 112.569 62.5697C111.267 62.0313 110.155 61.1192 109.371 59.9487C108.588 58.7781 108.169 57.4017 108.168 55.9933C108.168 52.0624 110.834 48.8633 115.298 48.8633Z" fill="#FAF9F7"/>
</svg>
