<svg width="170" height="170" viewBox="0 0 170 170" fill="none" xmlns="http://www.w3.org/2000/svg">
<path d="M120.496 130.554H52.5043C45.4198 130.554 41.5162 130.554 37.9924 128.758C34.8893 127.185 32.3684 124.663 30.7953 121.56C29 118.038 29 114.134 29 107.049V61.2348C29 54.9415 29.1108 51.3087 30.7953 47.9924C32.3686 44.8889 34.8903 42.3679 37.9941 40.7953C41.5162 39 45.4198 39 52.5043 39H120.496C127.58 39 131.484 39 135.006 40.7953C138.109 42.3677 140.631 44.8888 142.203 47.9924C143.889 51.3087 143.998 54.9415 143.998 61.2348C143.998 61.2945 143.998 61.3526 143.998 61.4106V107.049C143.998 114.134 143.998 118.038 142.203 121.56C140.63 124.663 138.109 127.185 135.006 128.758C131.484 130.554 127.58 130.554 120.496 130.554ZM45.0013 120.895C46.7878 121.058 49.2636 121.058 52.5096 121.058H120.496C123.74 121.058 126.216 121.058 128.002 120.895L103.167 91.0939L99.5375 93.5099C95.4423 96.2389 93.1915 97.7405 90.3377 98.4228C87.8142 99.0259 85.1841 99.0259 82.6606 98.4228C79.8085 97.7405 77.5613 96.2389 73.4713 93.5151L69.8314 91.0903L45.0013 120.895ZM111.116 85.7958L134.401 113.742C134.503 112.041 134.503 109.828 134.503 107.049V70.2025L111.116 85.7958ZM38.4953 70.2025V107.049C38.4953 109.828 38.4953 112.041 38.5973 113.742L61.8818 85.7958L38.4953 70.2025ZM71.5792 80.8495L78.7288 85.6165C81.915 87.7406 83.6664 88.9082 84.8726 89.1966C85.9414 89.4515 87.0551 89.4515 88.1239 89.1966C89.3336 88.9082 91.085 87.7406 94.2624 85.62L101.445 80.8319L101.475 80.8126L134.491 58.7994C134.456 55.5341 134.315 53.4187 133.743 52.3039C133.077 50.9894 132.009 49.9214 130.694 49.2549C129.203 48.4953 125.926 48.4953 120.496 48.4953H52.5043C47.0744 48.4953 43.7968 48.4953 42.3057 49.2549C40.991 49.9212 39.923 50.9893 39.2566 52.3039C38.6869 53.4187 38.5445 55.5288 38.5076 58.7994L71.5107 80.8003L71.5792 80.8495Z" fill="#FAF9F7"/>
<path d="M28.7002 107.05V61.2344C28.7002 54.9574 28.8046 51.2481 30.5273 47.8564C32.1295 44.6961 34.6977 42.1287 37.8584 40.5273C41.4584 38.6926 45.4459 38.7002 52.5039 38.7002L52.5043 39C45.4198 39 41.5162 39 37.9941 40.7953C34.8903 42.3679 32.3686 44.8889 30.7953 47.9924C29.1108 51.3087 29 54.9415 29 61.2348V107.049L29.0039 109.562C29.0285 115.104 29.2245 118.478 30.7953 121.56C32.3684 124.663 34.8893 127.185 37.9924 128.758C41.5162 130.554 45.4198 130.554 52.5043 130.554H120.496L123.009 130.55C128.55 130.525 131.924 130.329 135.006 128.758C138.109 127.185 140.63 124.663 142.203 121.56C143.774 118.478 143.971 115.104 143.995 109.562L143.998 107.049V61.2348C143.998 55.1386 143.896 51.5386 142.356 48.3047L142.203 47.9924C140.631 44.8888 138.109 42.3677 135.006 40.7953C131.924 39.2245 128.55 39.0285 123.009 39.0039L120.496 39L120.496 38.7002C127.554 38.7002 131.541 38.693 135.141 40.5273C138.301 42.1285 140.87 44.6961 142.471 47.8564L142.627 48.1758C144.201 51.4829 144.298 55.1537 144.298 61.2344V107.05C144.298 114.108 144.304 118.094 142.47 121.694C140.868 124.855 138.302 127.424 135.142 129.026L135.141 129.025C131.541 130.86 127.554 130.854 120.496 130.854H52.5039C45.4455 130.854 41.4583 130.86 37.8564 129.025C34.6967 127.423 32.1292 124.856 30.5273 121.695C28.693 118.096 28.7002 114.107 28.7002 107.05ZM120.496 120.759L120.496 121.058H52.5096L52.5098 120.759H120.496ZM73.4713 93.5151C77.5613 96.2389 79.8085 97.7405 82.6606 98.4228C85.0263 98.9882 87.4858 99.024 89.8633 98.5293L90.3377 98.4228C93.1915 97.7405 95.4423 96.2389 99.5375 93.5099L103.167 91.0939L128.002 120.895C126.216 121.058 123.74 121.058 120.496 121.058L120.496 120.759C123.407 120.759 125.684 120.756 127.398 120.64L103.108 91.4922L99.7041 93.7598C95.6223 96.4798 93.3238 98.0176 90.4072 98.7148C87.9987 99.2905 85.4947 99.3259 83.0742 98.8223L82.5908 98.7148C79.676 98.0176 77.3811 96.4793 73.3047 93.7646L69.8887 91.4883L45.6035 120.64C47.3185 120.756 49.5958 120.759 52.5098 120.759L52.5096 121.058L50.2178 121.056C48.0685 121.048 46.3411 121.018 45.0013 120.895L69.8314 91.0903L73.4713 93.5151ZM61.8818 85.7958L38.5973 113.742C38.5208 112.467 38.5019 110.903 38.4971 109.028L38.4953 70.2025L61.8818 85.7958ZM134.203 70.7627L111.561 85.8604L134.138 112.957C134.201 111.384 134.203 109.429 134.203 107.05V70.7627ZM52.5043 48.4953H120.496C125.926 48.4953 129.203 48.4953 130.694 49.2549C132.009 49.9214 133.077 50.9894 133.743 52.3039C134.315 53.4187 134.456 55.5341 134.491 58.7994L101.475 80.8126L101.445 80.8319L94.2624 85.62C91.085 87.7406 89.3336 88.9082 88.1239 89.1966L87.7207 89.2803C86.9119 89.4236 86.0842 89.4237 85.2754 89.2803L84.8726 89.1966C83.6664 88.9082 81.915 87.7406 78.7288 85.6165L71.5792 80.8495L71.5107 80.8003L38.5076 58.7994C38.5422 55.7332 38.6691 53.6868 39.1543 52.5244L39.2566 52.3039C39.923 50.9893 40.991 49.9212 42.3057 49.2549C43.7968 48.4953 47.0744 48.4953 52.5043 48.4953ZM52.5039 48.7949C49.786 48.7949 47.6193 48.7953 45.9453 48.8896C44.3643 48.9788 43.2688 49.151 42.5752 49.459L42.4414 49.5225C41.1837 50.1599 40.1619 51.1818 39.5244 52.4395L39.5234 52.4404C39.2648 52.9466 39.091 53.7075 38.9805 54.7744C38.8742 55.8002 38.8291 57.0805 38.8096 58.6406L71.6855 80.5566L71.7461 80.5996L78.8955 85.3672C80.4908 86.4307 81.7188 87.2489 82.6982 87.8379C83.6822 88.4296 84.3876 88.7717 84.9424 88.9043C85.9654 89.1483 87.0317 89.1483 88.0547 88.9043C88.6111 88.7716 89.3176 88.429 90.3008 87.8379C91.2795 87.2494 92.5048 86.4319 94.0957 85.3701L134.188 58.6406C134.169 57.0829 134.125 55.8027 134.02 54.7764C133.909 53.7086 133.736 52.9464 133.477 52.4404L133.476 52.4395C132.878 51.2606 131.943 50.2888 130.792 49.6465L130.559 49.5225C129.875 49.1745 128.741 48.9847 127.055 48.8896C125.381 48.7953 123.214 48.7949 120.496 48.7949H52.5039ZM120.496 38.7002L120.496 39H52.5043L52.5039 38.7002H120.496ZM38.7949 107.05C38.7949 109.429 38.7959 111.386 38.8594 112.959L61.4365 85.8604L38.7949 70.7627V107.05ZM134.501 109.028C134.496 110.903 134.477 112.467 134.401 113.742L111.116 85.7958L134.503 70.2025L134.501 109.028Z" fill="#FAF9F7"/>
</svg>
