<svg xmlns="http://www.w3.org/2000/svg" viewBox="0 0 546.84 90.12"><defs><style>.cls-1{fill:#fff;}</style></defs><g id="Layer_2" data-name="Layer 2"><g id="Layer_1-2" data-name="Layer 1"><path class="cls-1" d="M0,89.16V80.28A108.26,108.26,0,0,1,.84,66.84q.84-6.72,2-13.32t2.64-13.2q1.44-6.6,3-13.2T11.76,14q1.68-6.54,3.48-13H30.6q1.8,6.48,3.48,13t3.24,13.14q1.56,6.6,3,13.2T43,53.52q1.2,6.6,2,13.32a108.26,108.26,0,0,1,.84,13.44v8.88H32.52V80.28q0-2.64-.18-5.34t-.42-5.46h-18q-.24,2.76-.42,5.46t-.18,5.34v8.88ZM15.24,58H30.6q-1.44-10.68-3.42-21.3T22.92,15.48Q20.64,26,18.66,36.66T15.24,58Z"/><path class="cls-1" d="M52,89.16V1H68.32l16.2,34.56V1H97.84v88.2H84.52V62.28l-19.2-40.8V89.16Z"/><path class="cls-1" d="M106,89.16V1h15.12a44.52,44.52,0,0,1,6.06.42,21.51,21.51,0,0,1,5.88,1.68,27,27,0,0,1,5.28,3.12,27.61,27.61,0,0,1,4.44,4.2,34.51,34.51,0,0,1,3.54,5,44,44,0,0,1,2.7,5.52,41.09,41.09,0,0,1,1.86,5.82q.72,3,1.14,6.06t.6,6.12q.18,3.06.18,6.06t-.18,6.18q-.18,3.06-.6,6.12t-1.14,6.06A41.09,41.09,0,0,1,149,69.18a44,44,0,0,1-2.7,5.52,34.51,34.51,0,0,1-3.54,5,27.61,27.61,0,0,1-4.44,4.2,27,27,0,0,1-5.28,3.12,21.51,21.51,0,0,1-5.88,1.68,44.52,44.52,0,0,1-6.06.42Zm13.32-11.52h1.8a17.76,17.76,0,0,0,4.08-.48A11.07,11.07,0,0,0,129,75.48a17.14,17.14,0,0,0,3.12-2.76,18.75,18.75,0,0,0,2.4-3.42,36.17,36.17,0,0,0,1.8-3.78,32.83,32.83,0,0,0,1.32-4q.54-2,.9-4.08t.54-4.08q.18-2,.3-4.14t.12-4.14q0-2.16-.12-4.26t-.3-4.14q-.18-2-.54-4.08t-.9-4.08a32.83,32.83,0,0,0-1.32-4,36.17,36.17,0,0,0-1.8-3.78,18.75,18.75,0,0,0-2.4-3.42A17.14,17.14,0,0,0,129,14.64,11.07,11.07,0,0,0,125.2,13a17.76,17.76,0,0,0-4.08-.48h-1.8Z"/><path class="cls-1" d="M157,89.16V80.28a108.26,108.26,0,0,1,.84-13.44q.84-6.72,2-13.32t2.64-13.2q1.44-6.6,3-13.2T168.76,14q1.68-6.54,3.48-13H187.6q1.8,6.48,3.48,13t3.24,13.14q1.56,6.6,3,13.2T200,53.52q1.2,6.6,2,13.32a108.26,108.26,0,0,1,.84,13.44v8.88H189.52V80.28q0-2.64-.18-5.34t-.42-5.46h-18q-.24,2.76-.42,5.46t-.18,5.34v8.88ZM172.24,58H187.6q-1.44-10.68-3.42-21.3t-4.26-21.18Q177.64,26,175.66,36.66T172.24,58Z"/><path class="cls-1" d="M255.8,90.12a39.82,39.82,0,0,1-6.18-.48,20.55,20.55,0,0,1-5.88-1.86,22.49,22.49,0,0,1-5.16-3.48,18.46,18.46,0,0,1-3.84-4.8,22.33,22.33,0,0,1-2.22-5.76,26.89,26.89,0,0,1-.72-6.18V66.48h13.32V67a15.11,15.11,0,0,0,.66,4.44,11.18,11.18,0,0,0,2.1,3.9,8.25,8.25,0,0,0,3.54,2.52,12.48,12.48,0,0,0,4.38.78,12.65,12.65,0,0,0,4.32-.78,8.41,8.41,0,0,0,3.6-2.46,10.59,10.59,0,0,0,2.1-3.84,14.72,14.72,0,0,0,.66-4.32,14.3,14.3,0,0,0-1.2-5.76A16.15,16.15,0,0,0,262,56.58,20,20,0,0,0,257.42,53l-5.16-2.88q-2.58-1.44-5.1-3a31.25,31.25,0,0,1-4.68-3.54,31.84,31.84,0,0,1-4-4.38,29.73,29.73,0,0,1-3.06-5,24.08,24.08,0,0,1-1.86-5.58,29,29,0,0,1-.6-5.82,28.4,28.4,0,0,1,.66-6.12,23.62,23.62,0,0,1,2-5.7,19.91,19.91,0,0,1,8.52-8.52A20.35,20.35,0,0,1,250,.54a34.27,34.27,0,0,1,12.12,0,20.35,20.35,0,0,1,5.76,1.92A19.18,19.18,0,0,1,272.72,6a20.43,20.43,0,0,1,3.6,4.86,22.18,22.18,0,0,1,2.1,5.7,27.85,27.85,0,0,1,.66,6v1.08H265.76v-.48a17,17,0,0,0-.54-4.26,11.28,11.28,0,0,0-1.8-3.84,8,8,0,0,0-3.24-2.64,9.89,9.89,0,0,0-4.14-.9,10.49,10.49,0,0,0-4.14.84,7.76,7.76,0,0,0-3.24,2.52,10.65,10.65,0,0,0-1.8,3.78,17,17,0,0,0-.54,4.26,14,14,0,0,0,1.2,5.64,17,17,0,0,0,3.24,4.92,19.17,19.17,0,0,0,4.62,3.6q2.58,1.44,5.16,2.82t5,3a40.43,40.43,0,0,1,4.68,3.6,31.57,31.57,0,0,1,4,4.32,24.67,24.67,0,0,1,3,5,30.46,30.46,0,0,1,1.86,5.58,26.24,26.24,0,0,1,.66,5.88,26.89,26.89,0,0,1-.72,6.18,23.32,23.32,0,0,1-2.22,5.82,19.68,19.68,0,0,1-3.78,4.92,19.22,19.22,0,0,1-5.1,3.48A23.33,23.33,0,0,1,262,89.58,36.53,36.53,0,0,1,255.8,90.12Z"/><path class="cls-1" d="M309.92,90.12a32.39,32.39,0,0,1-6.48-.66,18.58,18.58,0,0,1-6-2.34,18.92,18.92,0,0,1-4.86-4.26,22.77,22.77,0,0,1-3.36-5.58A25.82,25.82,0,0,1,287.48,71a44.16,44.16,0,0,1-.48-6.48V1h13.32v63.6a28.79,28.79,0,0,0,.18,3.18,19.57,19.57,0,0,0,.6,3.12,16.53,16.53,0,0,0,1.14,2.94,9.86,9.86,0,0,0,1.86,2.58,7,7,0,0,0,2.7,1.68,9.28,9.28,0,0,0,6.24,0,7,7,0,0,0,2.7-1.68,9.86,9.86,0,0,0,1.86-2.58,16.53,16.53,0,0,0,1.14-2.94,19.57,19.57,0,0,0,.6-3.12,28.79,28.79,0,0,0,.18-3.18V1h13.32v63.6a44.16,44.16,0,0,1-.48,6.48,25.82,25.82,0,0,1-1.74,6.24,22.77,22.77,0,0,1-3.36,5.58,18.92,18.92,0,0,1-4.86,4.26,18.58,18.58,0,0,1-6,2.34A32.39,32.39,0,0,1,309.92,90.12Z"/><path class="cls-1" d="M362.12,89.16H341V1h21.12a33.92,33.92,0,0,1,6.3.6,22.15,22.15,0,0,1,6,2,18.51,18.51,0,0,1,5,3.78,20.66,20.66,0,0,1,3.6,5.16,21.92,21.92,0,0,1,1.92,6,37.58,37.58,0,0,1,.54,6.3,35.47,35.47,0,0,1-.42,5.46,17.27,17.27,0,0,1-1.62,5.1,18.36,18.36,0,0,1-3.06,4.38,19.75,19.75,0,0,1-4.26,3.42,24.26,24.26,0,0,1,5.52,3.36,17.59,17.59,0,0,1,4.14,4.8,19.47,19.47,0,0,1,2.28,5.94,31.51,31.51,0,0,1,.66,6.42,37.28,37.28,0,0,1-.66,7,22,22,0,0,1-2.34,6.54,21,21,0,0,1-4.32,5.46,24,24,0,0,1-5.76,3.9,23.44,23.44,0,0,1-6.6,2A45.33,45.33,0,0,1,362.12,89.16Zm-7.8-51.36h7.8a10.29,10.29,0,0,0,4.44-1A8.17,8.17,0,0,0,370,33.84a12.15,12.15,0,0,0,1.74-4.2,21.9,21.9,0,0,0,0-9.12,11,11,0,0,0-1.8-4.14,8.87,8.87,0,0,0-3.42-2.88,9.91,9.91,0,0,0-4.38-1h-7.8Zm0,39.84h7.8a16.63,16.63,0,0,0,5.4-.9A10.63,10.63,0,0,0,372,73.8a11.76,11.76,0,0,0,2.64-4.8,20.21,20.21,0,0,0,.78-5.52,19.58,19.58,0,0,0-.78-5.46,12.7,12.7,0,0,0-2.58-4.8,10,10,0,0,0-4.5-3,17.17,17.17,0,0,0-5.46-.9h-7.8Z"/><path class="cls-1" d="M395,89.16V1h44.88V12.48H408.28V37.56H433V49.08H408.28V77.64h31.56V89.16Z"/><path class="cls-1" d="M447,89.16V1h23.52a28.86,28.86,0,0,1,6.66.78,20.47,20.47,0,0,1,6.18,2.58,19.07,19.07,0,0,1,5,4.5,22.73,22.73,0,0,1,3.3,5.82,29.69,29.69,0,0,1,1.68,6.48,47.46,47.46,0,0,1,.48,6.72,48.53,48.53,0,0,1-.6,7.62,26.4,26.4,0,0,1-2.22,7.2A21.62,21.62,0,0,1,480.36,53q2.52,4.08,4.86,8.4a93.49,93.49,0,0,1,4.2,8.82,73.78,73.78,0,0,1,3.12,9.24,37.44,37.44,0,0,1,1.26,9.66H480.48a32.34,32.34,0,0,0-1.38-9.3A65.54,65.54,0,0,0,475.74,71a87.88,87.88,0,0,0-4.44-8.34q-2.46-4.08-5.1-7.92h-5.88V89.16Zm13.32-46h10.2a8.68,8.68,0,0,0,3.3-.66,8.45,8.45,0,0,0,2.82-1.86,9.27,9.27,0,0,0,1.92-2.82,20.87,20.87,0,0,0,1.14-3.24,22.66,22.66,0,0,0,.6-3.36,32.58,32.58,0,0,0,0-6.84,22.66,22.66,0,0,0-.6-3.36,20.87,20.87,0,0,0-1.14-3.24A9.27,9.27,0,0,0,476.64,15a8.45,8.45,0,0,0-2.82-1.86,8.68,8.68,0,0,0-3.3-.66h-10.2Z"/><path class="cls-1" d="M523.92,90.12a32.39,32.39,0,0,1-6.48-.66,18.58,18.58,0,0,1-6-2.34,18.92,18.92,0,0,1-4.86-4.26,22.77,22.77,0,0,1-3.36-5.58A25.82,25.82,0,0,1,501.48,71a44.16,44.16,0,0,1-.48-6.48V1h13.32v63.6a28.79,28.79,0,0,0,.18,3.18,19.57,19.57,0,0,0,.6,3.12,16.53,16.53,0,0,0,1.14,2.94,9.86,9.86,0,0,0,1.86,2.58,7,7,0,0,0,2.7,1.68,9.28,9.28,0,0,0,6.24,0,7,7,0,0,0,2.7-1.68,9.86,9.86,0,0,0,1.86-2.58,16.53,16.53,0,0,0,1.14-2.94,19.57,19.57,0,0,0,.6-3.12,28.79,28.79,0,0,0,.18-3.18V1h13.32v63.6a44.16,44.16,0,0,1-.48,6.48,25.82,25.82,0,0,1-1.74,6.24,22.77,22.77,0,0,1-3.36,5.58,18.92,18.92,0,0,1-4.86,4.26,18.58,18.58,0,0,1-6,2.34A32.39,32.39,0,0,1,523.92,90.12Z"/></g></g></svg>