<svg width="237" height="353" viewBox="0 0 237 353" fill="none" xmlns="http://www.w3.org/2000/svg">
<path d="M175.47 136.417C175.519 136.416 180.521 136.324 185.26 136.417C237.695 136.417 248.512 184.04 223.039 214.688C187.393 257.535 108.636 352.136 108.361 352.467V264.499L172.553 183.15H116.767L175.47 111.806V136.417Z" fill="white"/>
<path d="M175.47 0C175.579 1.84876 175.47 85.4039 175.47 85.6992L82.4043 198.938H82.8818L82.585 199.301H137.361L94.71 254.006H46.5088C46.4163 254.105 1.87437 302.026 0.15918 302.233C0.1591 300.877 1.96092e-06 266.286 0 249.436C9.64136e-05 227.104 6.55412 207.876 20.7109 190.423C71.7679 127.49 174.578 0.924757 175.47 0Z" fill="white"/>
</svg>
